<?xml version="1.0" encoding="utf-8"?>
<!-- Generator: Adobe Illustrator 16.0.0, SVG Export Plug-In . SVG Version: 6.00 Build 0)  -->
<!DOCTYPE svg PUBLIC "-//W3C//DTD SVG 1.1//EN" "http://www.w3.org/Graphics/SVG/1.1/DTD/svg11.dtd">
<svg version="1.1" id="Layer_1" xmlns="http://www.w3.org/2000/svg" xmlns:xlink="http://www.w3.org/1999/xlink" x="0px" y="0px"
	 width="750px" height="500px" viewBox="0 0 750 500" enable-background="new 0 0 750 500" xml:space="preserve">
<g id="BACKGROUND" display="none">
	
		<linearGradient id="SVGID_1_" gradientUnits="userSpaceOnUse" x1="-7494.4346" y1="8895.082" x2="-6825.5078" y2="8407.6465" gradientTransform="matrix(1 0 0 1 7646.0996 -8482.3398)">
		<stop  offset="0" style="stop-color:#4D70FF"/>
		<stop  offset="0.2729" style="stop-color:#436AFF"/>
		<stop  offset="0.7289" style="stop-color:#2A5AFF"/>
		<stop  offset="1" style="stop-color:#174EFF"/>
	</linearGradient>
	<rect display="inline" fill="url(#SVGID_1_)" width="750" height="500"/>
</g>
<g id="OBJECTS">
	<g>
		<g>
			<g>
				<path fill="#FFFFFF" d="M579.076,408.967c-0.555,0-1.11,0-1.665,0c-1.362,0-2.5,1.138-2.5,2.5c0,1.361,1.138,2.5,2.5,2.5
					c0.555,0,1.11,0,1.665,0c1.363,0,2.5-1.139,2.5-2.5C581.576,410.104,580.439,408.967,579.076,408.967L579.076,408.967z"/>
			</g>
		</g>
		<g>
			<path fill="#007BFF" d="M639.232,40.95c65.946,24.037,61.034,103.245,99.859,166.759
				c38.822,63.516,38.563,123.413,10.707,165.791c-27.854,42.377-105.977,68.867-185.979,27.624
				c-40.513-20.886-97.021-55.078-102.887-152.714C454.397,139.64,562.217,12.88,639.232,40.95z"/>
			<path opacity="0.34" fill="#6A64FF" enable-background="new    " d="M460.836,330.81c40.348,60.077,95.411,78.598,163.025,71.961
				c67.615-6.637,145.777-35.447,147.194-126.133c1.418-90.685-80.553-106.804-124.672-179.544
				c-26.647-43.933-101.27-56.701-155.389-8.147C451.357,124.504,392.525,229.102,460.836,330.81z"/>
			<ellipse fill="#293ED6" cx="630.939" cy="360.849" rx="133.384" ry="17.71"/>
		</g>
		<path opacity="0.17" fill="#6A64FF" enable-background="new    " d="M727.922,50.479c4.479,9.694,6.793,20.759,13.493,28.892
			c7.402,8.985,19.548,12.91,30.647,10.896c11.103-2.014,20.988-9.543,27.248-19.453c7.807-12.359,9.994-29.024,3.903-42.421
			c-3.471-7.634-9.292-13.792-15.508-19.129c-24.363-20.911-56.717-31.065-87.911-27.595c-4.982,0.554-10.086,1.5-14.313,4.345
			c-16.271,10.949,0.648,24.364,10.193,31.432C708.648,27.048,720.678,34.793,727.922,50.479z"/>
		<path opacity="0.08" fill="#6A64FF" enable-background="new    " d="M149.546,346.822c37.853,12.487,84.298-7.453,116.506,16.274
			c14.795,10.899,22.808,28.879,28.064,46.647c4.402,14.883,6.747,32.739-3.301,44.467c-8.144,9.502-21.699,11.627-34.082,12.472
			c-24.896,1.696-49.968,0.698-74.656-2.97c-27.122-4.026-54.313-11.524-77.066-27.036c-22.753-15.513-40.658-39.978-43.597-67.632
			c-2.062-19.405,7.114-59.493,31.287-62.512c13.146-1.643,17.827,10.137,25.126,18.545
			C126.409,334.967,137.134,342.727,149.546,346.822z"/>
		<path opacity="0.05" fill="#6A64FF" enable-background="new    " d="M297.892,344.842c14.638,11.929,24.318,36.113,21.164,54.73
			c-0.95,5.614-3.504,11.317-8.351,14.305c-5.709,3.521-14.37,2.494-20.905,0.986c-23.625-5.449-19.466-31.853-54.086-35.287
			c-12.329-1.224-36.465-0.938-40.849-12.525c-8.251-21.813,25.24-38.311,44.933-40.733
			C261.193,323.682,282.003,331.895,297.892,344.842z"/>
	</g>
</g>
<g id="DESIGNED_BY_FREEPIK" display="none">
</g>
<title>image post</title>
<ellipse opacity="0.1" fill="#6C63FF" enable-background="new    " cx="497.326" cy="348.088" rx="31.395" ry="8.395"/>
<linearGradient id="SVGID_2_" gradientUnits="userSpaceOnUse" x1="-7015.4883" y1="7186.9814" x2="-7015.4883" y2="7188.5186" gradientTransform="matrix(6.123234e-017 1 1 -6.123234e-017 -6561.4805 7190.1396)">
	<stop  offset="0" style="stop-color:#808080;stop-opacity:0.25"/>
	<stop  offset="0.54" style="stop-color:#808080;stop-opacity:0.12"/>
	<stop  offset="1" style="stop-color:#808080;stop-opacity:0.1"/>
</linearGradient>
<rect x="625.501" y="174.111" fill="url(#SVGID_2_)" width="1.537" height="1.083"/>
<path fill="#FFFFFF" stroke="#C6C6C6" stroke-miterlimit="10" d="M728.44,182.142c0.013-3.024-2.118-5.485-4.758-5.5l0,0H511.378
	c-2.641,0.015-4.771,2.476-4.759,5.5l0,0v147.383H728.44V182.142z"/>
<linearGradient id="SVGID_3_" gradientUnits="userSpaceOnUse" x1="-7391.7485" y1="7907.166" x2="-7346.3057" y2="7907.166" gradientTransform="matrix(1 0 0 -1 7877.5195 8210.1289)">
	<stop  offset="0" style="stop-color:#808080;stop-opacity:0.25"/>
	<stop  offset="0.54" style="stop-color:#808080;stop-opacity:0.12"/>
	<stop  offset="1" style="stop-color:#808080;stop-opacity:0.1"/>
</linearGradient>
<path fill="url(#SVGID_3_)" d="M530.837,329.205c-0.602-1.235-1.935-1.848-3.177-2.329c-1.242-0.482-2.561-0.946-3.868-1.355
	c1.589-1.506,2.847-3.373,3.989-5.275c0.652-1.085,1.281-2.22,1.593-3.461c0.313-1.24,0.282-2.631-0.339-3.74
	c-0.734-1.319-2.189-2.056-3.639-2.241c-1.451-0.184-2.91,0.101-4.34,0.401c-1.025,0.217-2.049,0.443-3.074,0.678
	c0.6-0.307,1.184-0.646,1.75-1.016c2.11-1.385,3.965-3.157,5.725-5.004c0.557-0.585,1.146-1.273,1.13-2.1
	c-0.016-0.764-0.576-1.433-1.253-1.72c-0.693-0.251-1.443-0.282-2.154-0.09c-1.945,0.44-3.636,1.702-4.675,3.498
	c-0.354,0.622-0.63,1.313-1.119,1.827c-0.582,0.609-1.501,0.852-2.146,0.229c-0.224-0.264-0.388-0.579-0.477-0.922l0.033-0.045
	c1.28-1.971,1.376-4.641,0.53-6.859c-0.643-1.693-1.755-3.121-2.871-4.534c0.999-0.746,2.089-1.345,3.24-1.783
	c0.317-0.097,0.619-0.246,0.894-0.44c0.546-0.442,0.712-1.233,0.722-1.957c0.011-0.723-0.097-1.435,0.047-2.132
	c0.688,0.228,1.405,0.343,2.127,0.343c2.768,0.008,5.277-1.713,6.403-4.387c1.269-0.348,2.505-0.911,3.419-1.896
	c1.127-1.205,1.822-3.547,0.619-4.957c-0.398-0.463-1-0.666-1.486-1c-0.769-0.541-1.281-1.206-1.82-1.982
	c-2.379-3.389-5.789-4.015-9.629-3.563c-1.727,0.202-3.457,0.543-5.045,1.285c-1.215,0.609-2.369,1.344-3.449,2.193
	c-0.174,0.13-0.35,0.27-0.512,0.398c-0.31-1.009-0.725-2-0.971-2.795c-0.127-0.328-0.182-0.682-0.156-1.034
	c0.082-0.592,0.563-1.024,1.024-1.397l6.509-5.396c0.686-0.602,1.416-1.14,2.186-1.611c2.244-1.284,5.082-1.438,6.963-3.251
	c1.096-1.066,1.711-2.574,1.695-4.146c-0.021-1.119-0.513-2.374-1.537-2.683c-1.076-0.326-2.126,0.511-2.955,1.296
	c-2.725,2.563-5.439,5.162-8.477,7.313c-2.875,2.023-6.041,3.64-8.598,6.083c-0.467,0.416-0.868,0.907-1.189,1.456
	c-0.313,0.659-0.531,1.366-0.643,2.097l-0.53,2.637c-0.428,2.125-0.769,4.586,0.449,6.291c-0.077,0.16-0.14,0.328-0.189,0.5
	c-0.185,0.658,0.153,1.354,0,1.93c-0.169,0.645-1.1,1.354-1.515,1.867c-0.573,0.703-1.127,1.432-1.654,2.166
	c-2.037,2.922-3.787,6.057-5.223,9.354c-2.201,4.946-3.844,10.137-5.498,15.313c-0.289,0.916-0.584,1.851-0.592,2.817
	c0.004,0.877,0.244,1.735,0.697,2.472c-0.441,2.743-1.553,5.366-1.592,8.175l-0.401,0.191c-0.175,2.609,1.024,5.21,2.049,7.586
	c0.593,1.354,1.304,2.814,2.621,3.369c0.673,0.271,1.419,0.289,2.144,0.271c0.844,0,1.619,0.018,2.385,0.035h-0.098
	c-0.922,0.162-1.946,0.541-2.305,1.443c-0.148,0.49-0.186,1.01-0.105,1.517c0.297,3.562,0.594,7.12,0.889,10.68
	c0.064,0.787,0.156,1.638,0.667,2.224c0.466,0.542,1.186,0.726,1.87,0.84c1.281,0.207,2.585,0.221,3.871,0.035
	c0.539-0.041,1.061-0.227,1.514-0.541c0.427-0.345,0.693-0.969,0.482-1.49c-0.297-0.746-1.295-0.852-1.792-1.465
	c-0.65-0.796-0.218-2.008,0.235-2.939c0.069-0.145,0.15-0.297,0.236-0.451c0.451,0.715,0.988,1.365,1.598,1.936
	c0.5,0.463,1.215,0.79,1.793,0.466c1.42-0.782,2.848-1.549,4.283-2.304l0.334,0.049c2.785,0.404,5.596,0.57,8.406,0.502
	c0.533,0.021,1.066-0.078,1.561-0.293c0.479-0.249,0.863-0.781,0.789-1.332c-0.088-0.671-0.756-1.063-1.36-1.297
	c-1.14-0.441-2.334-0.703-3.546-0.779c1.57-0.79,3.145-1.578,4.722-2.362c1.575-0.785,3.166-1.575,4.866-2.025
	c2.181-0.577,4.734-0.718,6.148-2.556c0.848-1.111,1.055-2.601,1.145-4.019C531.239,331.056,531.252,330.065,530.837,329.205z
	 M508.701,314.241c-0.768,0.215-1.637,0.439-2.516,0.715c-0.082-0.709-0.209-1.418-0.291-2.123
	c-0.045-0.217-0.025-0.445,0.053-0.651c0.131-0.197,0.313-0.349,0.525-0.433l2.932-1.518c0.002-0.572-0.219-1.121-0.611-1.518
	c0.285,0.113,0.58,0.193,0.88,0.239c0.296,1.36,0.856,2.64,1.644,3.759c0.17,0.266,0.406,0.476,0.682,0.607l0.047,0.014
	C510.928,313.626,509.813,313.929,508.701,314.241z"/>
<path fill="#FABDBD" d="M511.502,284.134c-1.455,0.453-3.074,0.078-4.368-0.74c-0.257-0.191-0.544-0.332-0.848-0.416
	c-0.53-0.1-1.056,0.219-1.44,0.62c-1.246,1.312-1.39,3.478-0.744,5.207c0.645,1.728,1.936,3.097,3.293,4.28
	c1.096,0.954,2.254,1.824,3.467,2.605c0.674-1.672,1.954-2.988,3.553-3.654c1.425-0.583,2.467-2.146,3.284-3.521
	c0.604-1.011,1.146-0.965,0.599-2.013c-0.545-1.048-1.395-1.876-2.158-2.761c-0.449-0.496-0.838-1.047-1.163-1.643
	c-0.367-0.688-0.285-1.139-0.845-0.592c-0.373,0.365-0.533,1.148-0.948,1.576C512.71,283.573,512.134,283.933,511.502,284.134z"/>
<path fill="#FFFFFF" stroke="#C6C6C6" stroke-miterlimit="10" d="M721.8,218.441c0.012-2.086-1.904-3.784-4.278-3.794l0,0h-190.9
	c-2.375,0.01-4.29,1.708-4.279,3.794l0,0v101.677H721.8V218.441z"/>
<rect x="531.309" y="255.335" opacity="0.3" fill="#6C63FF" enable-background="new    " width="6.711" height="1.884"/>
<rect x="710.368" y="255.393" opacity="0.3" fill="#6C63FF" enable-background="new    " width="6.711" height="1.882"/>
<rect x="531.369" y="268.565" opacity="0.3" fill="#6C63FF" enable-background="new    " width="6.711" height="1.881"/>
<rect x="531.43" y="281.793" opacity="0.3" fill="#6C63FF" enable-background="new    " width="6.71" height="1.884"/>
<rect x="531.491" y="295.021" opacity="0.3" fill="#6C63FF" enable-background="new    " width="6.71" height="1.882"/>
<g opacity="0.2">
	<rect x="537.832" y="256.241" fill="#F2F2F2" width="1.881" height="0.073"/>
	<path fill="#F2F2F2" d="M702.428,256.314h-3.694v-0.073h3.694V256.314z M695.033,256.314h-3.695v-0.073h3.695V256.314z
		 M687.639,256.314h-3.7v-0.073h3.7V256.314z M680.242,256.314h-3.699v-0.073h3.699V256.314z M672.847,256.314h-3.699v-0.073h3.699
		V256.314z M665.449,256.314h-3.697v-0.073h3.697V256.314z M658.054,256.314h-3.7v-0.073h3.7V256.314z M650.657,256.314h-3.699
		v-0.073h3.699V256.314z M643.261,256.314h-3.697v-0.073h3.697V256.314z M635.864,256.314h-3.697v-0.073h3.697V256.314z
		 M628.469,256.314h-3.699v-0.073h3.699V256.314z M621.072,256.314h-3.699v-0.073h3.699V256.314z M613.678,256.314h-3.7v-0.073h3.7
		V256.314z M606.279,256.314h-3.697v-0.073h3.697V256.314z M598.884,256.314h-3.696v-0.073h3.696V256.314z M591.487,256.314h-3.686
		v-0.073h3.699L591.487,256.314z M584.093,256.314h-3.7v-0.073h3.7V256.314z M576.693,256.314h-3.696v-0.073h3.696V256.314z
		 M569.299,256.314h-3.696v-0.073h3.702L569.299,256.314z M561.902,256.314h-3.699v-0.073h3.699V256.314z M554.507,256.314h-3.698
		v-0.073h3.699L554.507,256.314z M547.108,256.314h-3.696v-0.073h3.696V256.314z"/>
	<rect x="706.128" y="256.241" fill="#F2F2F2" width="1.88" height="0.073"/>
	<rect x="537.832" y="256.241" fill="#F2F2F2" width="1.881" height="0.073"/>
	<path fill="#F2F2F2" d="M702.428,256.314h-3.694v-0.073h3.694V256.314z M695.033,256.314h-3.695v-0.073h3.695V256.314z
		 M687.639,256.314h-3.7v-0.073h3.7V256.314z M680.242,256.314h-3.699v-0.073h3.699V256.314z M672.847,256.314h-3.699v-0.073h3.699
		V256.314z M665.449,256.314h-3.697v-0.073h3.697V256.314z M658.054,256.314h-3.7v-0.073h3.7V256.314z M650.657,256.314h-3.699
		v-0.073h3.699V256.314z M643.261,256.314h-3.697v-0.073h3.697V256.314z M635.864,256.314h-3.697v-0.073h3.697V256.314z
		 M628.469,256.314h-3.699v-0.073h3.699V256.314z M621.072,256.314h-3.699v-0.073h3.699V256.314z M613.678,256.314h-3.7v-0.073h3.7
		V256.314z M606.279,256.314h-3.697v-0.073h3.697V256.314z M598.884,256.314h-3.696v-0.073h3.696V256.314z M591.487,256.314h-3.686
		v-0.073h3.699L591.487,256.314z M584.093,256.314h-3.7v-0.073h3.7V256.314z M576.693,256.314h-3.696v-0.073h3.696V256.314z
		 M569.299,256.314h-3.696v-0.073h3.702L569.299,256.314z M561.902,256.314h-3.699v-0.073h3.699V256.314z M554.507,256.314h-3.698
		v-0.073h3.699L554.507,256.314z M547.108,256.314h-3.696v-0.073h3.696V256.314z"/>
	<rect x="706.128" y="256.241" fill="#F2F2F2" width="1.88" height="0.073"/>
</g>
<rect x="531.309" y="242.145" opacity="0.3" fill="#6C63FF" enable-background="new    " width="6.711" height="1.883"/>
<rect x="710.368" y="242.202" opacity="0.3" fill="#6C63FF" enable-background="new    " width="6.711" height="1.881"/>
<g opacity="0.2">
	<rect x="537.832" y="243.05" fill="#F2F2F2" width="1.881" height="0.075"/>
	<path fill="#F2F2F2" d="M702.428,243.126h-3.694v-0.075h3.694V243.126z M695.033,243.126h-3.695v-0.075h3.695V243.126z
		 M687.639,243.126h-3.7v-0.075h3.7V243.126z M680.242,243.126h-3.699v-0.075h3.699V243.126z M672.847,243.126h-3.699v-0.075h3.699
		V243.126z M665.449,243.126h-3.697v-0.075h3.697V243.126z M658.054,243.126h-3.7v-0.075h3.7V243.126z M650.657,243.126h-3.699
		v-0.075h3.699V243.126z M643.261,243.126h-3.697v-0.075h3.697V243.126z M635.864,243.126h-3.697v-0.075h3.697V243.126z
		 M628.469,243.126h-3.699v-0.075h3.699V243.126z M621.072,243.126h-3.699v-0.075h3.699V243.126z M613.678,243.126h-3.7v-0.075h3.7
		V243.126z M606.279,243.126h-3.697v-0.075h3.697V243.126z M598.884,243.126h-3.696v-0.075h3.696V243.126z M591.487,243.126h-3.686
		v-0.075h3.699L591.487,243.126z M584.093,243.126h-3.7v-0.075h3.7V243.126z M576.693,243.126h-3.696v-0.075h3.696V243.126z
		 M569.299,243.126h-3.696v-0.075h3.702L569.299,243.126z M561.902,243.126h-3.699v-0.075h3.699V243.126z M554.507,243.126h-3.698
		v-0.075h3.699L554.507,243.126z M547.108,243.126h-3.696v-0.075h3.696V243.126z"/>
	<rect x="706.128" y="243.05" fill="#F2F2F2" width="1.88" height="0.075"/>
</g>
<rect x="710.368" y="268.565" opacity="0.3" fill="#6C63FF" enable-background="new    " width="6.711" height="1.881"/>
<g opacity="0.2">
	<rect x="537.832" y="269.415" fill="#F2F2F2" width="1.881" height="0.072"/>
	<path fill="#F2F2F2" d="M702.428,269.485h-3.694v-0.074h3.694V269.485z M695.033,269.485h-3.695v-0.074h3.695V269.485z
		 M687.639,269.485h-3.7v-0.074h3.7V269.485z M680.242,269.485h-3.699v-0.074h3.699V269.485z M672.847,269.485h-3.699v-0.074h3.699
		V269.485z M665.449,269.485h-3.697v-0.074h3.697V269.485z M658.054,269.485h-3.7v-0.074h3.7V269.485z M650.657,269.485h-3.699
		v-0.074h3.699V269.485z M643.261,269.485h-3.697v-0.074h3.697V269.485z M635.864,269.485h-3.697v-0.074h3.697V269.485z
		 M628.469,269.485h-3.699v-0.074h3.699V269.485z M621.072,269.485h-3.699v-0.074h3.699V269.485z M613.678,269.485h-3.7v-0.074h3.7
		V269.485z M606.279,269.485h-3.697v-0.074h3.697V269.485z M598.884,269.485h-3.696v-0.074h3.696V269.485z M591.487,269.485h-3.686
		v-0.074h3.699L591.487,269.485z M584.093,269.485h-3.7v-0.074h3.7V269.485z M576.693,269.485h-3.696v-0.074h3.696V269.485z
		 M569.299,269.485h-3.696v-0.074h3.702L569.299,269.485z M561.902,269.485h-3.699v-0.074h3.699V269.485z M554.507,269.485h-3.698
		v-0.074h3.699L554.507,269.485z M547.108,269.485h-3.696v-0.074h3.696V269.485z"/>
	<rect x="706.128" y="269.415" fill="#F2F2F2" width="1.88" height="0.072"/>
	<rect x="537.832" y="269.415" fill="#F2F2F2" width="1.881" height="0.072"/>
	<path fill="#F2F2F2" d="M702.428,269.485h-3.694v-0.074h3.694V269.485z M695.033,269.485h-3.695v-0.074h3.695V269.485z
		 M687.639,269.485h-3.7v-0.074h3.7V269.485z M680.242,269.485h-3.699v-0.074h3.699V269.485z M672.847,269.485h-3.699v-0.074h3.699
		V269.485z M665.449,269.485h-3.697v-0.074h3.697V269.485z M658.054,269.485h-3.7v-0.074h3.7V269.485z M650.657,269.485h-3.699
		v-0.074h3.699V269.485z M643.261,269.485h-3.697v-0.074h3.697V269.485z M635.864,269.485h-3.697v-0.074h3.697V269.485z
		 M628.469,269.485h-3.699v-0.074h3.699V269.485z M621.072,269.485h-3.699v-0.074h3.699V269.485z M613.678,269.485h-3.7v-0.074h3.7
		V269.485z M606.279,269.485h-3.697v-0.074h3.697V269.485z M598.884,269.485h-3.696v-0.074h3.696V269.485z M591.487,269.485h-3.686
		v-0.074h3.699L591.487,269.485z M584.093,269.485h-3.7v-0.074h3.7V269.485z M576.693,269.485h-3.696v-0.074h3.696V269.485z
		 M569.299,269.485h-3.696v-0.074h3.702L569.299,269.485z M561.902,269.485h-3.699v-0.074h3.699V269.485z M554.507,269.485h-3.698
		v-0.074h3.699L554.507,269.485z M547.108,269.485h-3.696v-0.074h3.696V269.485z"/>
	<rect x="706.128" y="269.415" fill="#F2F2F2" width="1.88" height="0.072"/>
</g>
<rect x="710.368" y="281.737" opacity="0.3" fill="#6C63FF" enable-background="new    " width="6.711" height="1.883"/>
<g opacity="0.2">
	<rect x="537.832" y="282.586" fill="#F2F2F2" width="1.881" height="0.073"/>
	<path fill="#F2F2F2" d="M702.428,282.659h-3.694v-0.073h3.694V282.659z M695.033,282.659h-3.695v-0.073h3.695V282.659z
		 M687.639,282.659h-3.7v-0.073h3.7V282.659z M680.242,282.659h-3.699v-0.073h3.699V282.659z M672.847,282.659h-3.699v-0.073h3.699
		V282.659z M665.449,282.659h-3.697v-0.073h3.697V282.659z M658.054,282.659h-3.7v-0.073h3.7V282.659z M650.657,282.659h-3.699
		v-0.073h3.699V282.659z M643.261,282.659h-3.697v-0.073h3.697V282.659z M635.864,282.659h-3.697v-0.073h3.697V282.659z
		 M628.469,282.659h-3.699v-0.073h3.699V282.659z M621.072,282.659h-3.699v-0.073h3.699V282.659z M613.678,282.659h-3.7v-0.073h3.7
		V282.659z M606.279,282.659h-3.697v-0.073h3.697V282.659z M598.884,282.659h-3.696v-0.073h3.696V282.659z M591.487,282.659h-3.686
		v-0.073h3.699L591.487,282.659z M584.093,282.659h-3.7v-0.073h3.7V282.659z M576.693,282.659h-3.696v-0.073h3.696V282.659z
		 M569.299,282.659h-3.696v-0.073h3.702L569.299,282.659z M561.902,282.659h-3.699v-0.073h3.699V282.659z M554.507,282.659h-3.698
		v-0.073h3.699L554.507,282.659z M547.108,282.659h-3.696v-0.073h3.696V282.659z"/>
	<rect x="706.128" y="282.586" fill="#F2F2F2" width="1.88" height="0.073"/>
	<rect x="537.832" y="282.586" fill="#F2F2F2" width="1.881" height="0.073"/>
	<path fill="#F2F2F2" d="M702.428,282.659h-3.694v-0.073h3.694V282.659z M695.033,282.659h-3.695v-0.073h3.695V282.659z
		 M687.639,282.659h-3.7v-0.073h3.7V282.659z M680.242,282.659h-3.699v-0.073h3.699V282.659z M672.847,282.659h-3.699v-0.073h3.699
		V282.659z M665.449,282.659h-3.697v-0.073h3.697V282.659z M658.054,282.659h-3.7v-0.073h3.7V282.659z M650.657,282.659h-3.699
		v-0.073h3.699V282.659z M643.261,282.659h-3.697v-0.073h3.697V282.659z M635.864,282.659h-3.697v-0.073h3.697V282.659z
		 M628.469,282.659h-3.699v-0.073h3.699V282.659z M621.072,282.659h-3.699v-0.073h3.699V282.659z M613.678,282.659h-3.7v-0.073h3.7
		V282.659z M606.279,282.659h-3.697v-0.073h3.697V282.659z M598.884,282.659h-3.696v-0.073h3.696V282.659z M591.487,282.659h-3.686
		v-0.073h3.699L591.487,282.659z M584.093,282.659h-3.7v-0.073h3.7V282.659z M576.693,282.659h-3.696v-0.073h3.696V282.659z
		 M569.299,282.659h-3.696v-0.073h3.702L569.299,282.659z M561.902,282.659h-3.699v-0.073h3.699V282.659z M554.507,282.659h-3.698
		v-0.073h3.699L554.507,282.659z M547.108,282.659h-3.696v-0.073h3.696V282.659z"/>
	<rect x="706.128" y="282.586" fill="#F2F2F2" width="1.88" height="0.073"/>
</g>
<rect x="710.368" y="294.909" opacity="0.3" fill="#6C63FF" enable-background="new    " width="6.711" height="1.883"/>
<g opacity="0.2">
	<rect x="537.832" y="295.759" fill="#F2F2F2" width="1.881" height="0.072"/>
	<path fill="#F2F2F2" d="M702.428,295.833h-3.694v-0.074h3.694V295.833z M695.033,295.833h-3.695v-0.074h3.695V295.833z
		 M687.639,295.833h-3.7v-0.074h3.7V295.833z M680.242,295.833h-3.699v-0.074h3.699V295.833z M672.847,295.833h-3.699v-0.074h3.699
		V295.833z M665.449,295.833h-3.697v-0.074h3.697V295.833z M658.054,295.833h-3.7v-0.074h3.7V295.833z M650.657,295.833h-3.699
		v-0.074h3.699V295.833z M643.261,295.833h-3.697v-0.074h3.697V295.833z M635.864,295.833h-3.697v-0.074h3.697V295.833z
		 M628.469,295.833h-3.699v-0.074h3.699V295.833z M621.072,295.833h-3.699v-0.074h3.699V295.833z M613.678,295.833h-3.7v-0.074h3.7
		V295.833z M606.279,295.833h-3.697v-0.074h3.697V295.833z M598.884,295.833h-3.696v-0.074h3.696V295.833z M591.487,295.833h-3.686
		v-0.074h3.699L591.487,295.833z M584.093,295.833h-3.7v-0.074h3.7V295.833z M576.693,295.833h-3.696v-0.074h3.696V295.833z
		 M569.299,295.833h-3.696v-0.074h3.702L569.299,295.833z M561.902,295.833h-3.699v-0.074h3.699V295.833z M554.507,295.833h-3.698
		v-0.074h3.699L554.507,295.833z M547.108,295.833h-3.696v-0.074h3.696V295.833z"/>
	<rect x="706.128" y="295.759" fill="#F2F2F2" width="1.88" height="0.072"/>
	<rect x="537.832" y="295.759" fill="#F2F2F2" width="1.881" height="0.072"/>
	<path fill="#F2F2F2" d="M702.428,295.833h-3.694v-0.074h3.694V295.833z M695.033,295.833h-3.695v-0.074h3.695V295.833z
		 M687.639,295.833h-3.7v-0.074h3.7V295.833z M680.242,295.833h-3.699v-0.074h3.699V295.833z M672.847,295.833h-3.699v-0.074h3.699
		V295.833z M665.449,295.833h-3.697v-0.074h3.697V295.833z M658.054,295.833h-3.7v-0.074h3.7V295.833z M650.657,295.833h-3.699
		v-0.074h3.699V295.833z M643.261,295.833h-3.697v-0.074h3.697V295.833z M635.864,295.833h-3.697v-0.074h3.697V295.833z
		 M628.469,295.833h-3.699v-0.074h3.699V295.833z M621.072,295.833h-3.699v-0.074h3.699V295.833z M613.678,295.833h-3.7v-0.074h3.7
		V295.833z M606.279,295.833h-3.697v-0.074h3.697V295.833z M598.884,295.833h-3.696v-0.074h3.696V295.833z M591.487,295.833h-3.686
		v-0.074h3.699L591.487,295.833z M584.093,295.833h-3.7v-0.074h3.7V295.833z M576.693,295.833h-3.696v-0.074h3.696V295.833z
		 M569.299,295.833h-3.696v-0.074h3.702L569.299,295.833z M561.902,295.833h-3.699v-0.074h3.699V295.833z M554.507,295.833h-3.698
		v-0.074h3.699L554.507,295.833z M547.108,295.833h-3.696v-0.074h3.696V295.833z"/>
	<rect x="706.128" y="295.759" fill="#F2F2F2" width="1.88" height="0.072"/>
</g>
<line fill="none" stroke="#F2F2F2" stroke-width="0.1" stroke-miterlimit="10" x1="559.896" y1="243.141" x2="559.896" y2="295.962"/>
<line fill="none" stroke="#F2F2F2" stroke-width="0.1" stroke-miterlimit="10" x1="583.059" y1="243.141" x2="583.059" y2="295.962"/>
<line fill="none" stroke="#F2F2F2" stroke-width="0.1" stroke-miterlimit="10" x1="606.22" y1="243.141" x2="606.22" y2="295.962"/>
<line fill="none" stroke="#F2F2F2" stroke-width="0.1" stroke-miterlimit="10" x1="628.104" y1="243.141" x2="628.104" y2="295.962"/>
<line fill="none" stroke="#F2F2F2" stroke-width="0.1" stroke-miterlimit="10" x1="650.99" y1="243.141" x2="650.99" y2="295.962"/>
<line fill="none" stroke="#F2F2F2" stroke-width="0.1" stroke-miterlimit="10" x1="673.875" y1="243.141" x2="673.875" y2="295.962"/>
<line fill="none" stroke="#F2F2F2" stroke-width="0.1" stroke-miterlimit="10" x1="696.761" y1="243.141" x2="696.761" y2="295.962"/>
<path opacity="0.3" fill="#007BFF" enable-background="new    " d="M701.711,239.577l-2.618,2.551
	c-0.053,0.053-0.098,0.113-0.131,0.179l-1.624,3.128c-0.133,0.256-0.42,0.412-0.724,0.39l-0.521-0.038
	c-0.31-0.021-0.571-0.219-0.657-0.498l-0.503-1.625c-0.113-0.368-0.525-0.58-0.919-0.475c-0.233,0.063-0.419,0.228-0.498,0.443
	l-0.843,2.309c-0.103,0.283-0.386,0.474-0.705,0.473h-3.219c-0.366-0.001-0.677-0.248-0.735-0.587l-0.909-5.319
	c-0.063-0.379-0.443-0.639-0.848-0.581c-0.238,0.036-0.441,0.176-0.55,0.377l-4.662,8.603c-0.185,0.342-0.631,0.48-0.998,0.308
	c-0.033-0.017-0.063-0.034-0.093-0.054l-2.771-1.828c-0.315-0.207-0.742-0.158-0.995,0.111l-1.051,1.134
	c-0.03,0.034-0.058,0.069-0.081,0.108l-2.802,4.535c-0.146,0.237-0.427,0.372-0.718,0.342l-1.709-0.156
	c-0.119-0.012-0.239,0.004-0.351,0.046l-1.531,0.571c-0.367,0.13-0.78-0.029-0.939-0.365l-0.336-0.719
	c-0.124-0.264-0.408-0.428-0.714-0.416l-1.75,0.076c-0.22,0.008-0.423,0.108-0.556,0.273l-0.494,0.604
	c-0.249,0.305-0.716,0.361-1.042,0.129c-0.115-0.082-0.201-0.195-0.251-0.323l-0.626-1.657c-0.136-0.361-0.56-0.551-0.947-0.424
	c-0.072,0.023-0.139,0.057-0.2,0.1l-2.979,2.088l-3.291,2.48c-0.23,0.174-0.546,0.204-0.81,0.077l-2.555-1.239
	c-0.137-0.065-0.293-0.09-0.445-0.07l-5.176,0.678c-0.307,0.038-0.557,0.251-0.627,0.532l-0.918,3.731
	c-0.094,0.375-0.491,0.607-0.892,0.521c-0.116-0.024-0.226-0.076-0.316-0.148l0,0c-0.313-0.25-0.785-0.215-1.052,0.078
	c-0.038,0.042-0.071,0.088-0.098,0.138l-0.706,1.323c-0.107,0.198-0.309,0.337-0.542,0.375l-1.603,0.249
	c-0.103,0.017-0.202,0.054-0.288,0.108l-2.524,1.57c-0.121,0.078-0.265,0.118-0.41,0.119h-1.182c-0.297,0-0.566-0.166-0.684-0.421
	l-0.314-0.699c-0.165-0.351-0.603-0.512-0.979-0.356c-0.006,0.002-0.012,0.004-0.017,0.006l-2.741,1.201
	c-0.224,0.098-0.486,0.086-0.699-0.033l-1.254-0.707c-0.115-0.064-0.247-0.098-0.382-0.098h-2.768c-0.147,0-0.29,0.04-0.411,0.117
	l-2.763,1.713c-0.217,0.135-0.492,0.152-0.728,0.05l-1.254-0.553c-0.3-0.132-0.656-0.062-0.874,0.172l-0.596,0.638
	c-0.268,0.287-0.734,0.318-1.044,0.069c-0.065-0.053-0.121-0.116-0.163-0.188l-0.18-0.294c-0.2-0.334-0.651-0.454-1.011-0.268
	c-0.006,0.004-0.011,0.008-0.018,0.01l-2.172,1.205c-0.229,0.122-0.511,0.122-0.739,0l-0.897-0.467
	c-0.204-0.107-0.453-0.117-0.667-0.025l-0.853,0.363c-0.378,0.158-0.821,0-0.991-0.354c-0.01-0.021-0.021-0.045-0.027-0.068
	l-0.553-1.536c-0.097-0.29-0.384-0.485-0.708-0.483h-0.804c-0.126,0-0.25-0.031-0.36-0.088l-3.081-1.581
	c-0.256-0.13-0.569-0.107-0.802,0.056l-2.261,1.584c-0.129,0.09-0.284,0.139-0.445,0.137h-2.844c-0.146,0-0.288,0.041-0.411,0.117
	l-0.532,0.332c-0.342,0.213-0.804,0.127-1.031-0.189c-0.018-0.025-0.033-0.051-0.048-0.076l-0.128-0.238
	c-0.125-0.238-0.382-0.388-0.665-0.388h-1.426c-0.229,0.002-0.446,0.101-0.586,0.27l-0.885,1.059
	c-0.253,0.304-0.72,0.356-1.042,0.12c-0.068-0.049-0.125-0.108-0.171-0.176l-0.251-0.367c-0.215-0.319-0.664-0.416-1.01-0.222
	l-0.733,0.41c-0.255,0.142-0.577,0.13-0.818-0.032l-2.956-2.002c-0.053-0.035-0.109-0.064-0.17-0.088l-2.311-0.83
	c-0.373-0.127-0.787,0.043-0.939,0.387l-1.609,3.665c-0.022,0.052-0.039,0.105-0.047,0.161l-0.52,3.301
	c-0.023,0.14-0.092,0.27-0.195,0.372l-1.1,1.104c-0.234,0.232-0.607,0.287-0.906,0.132l-1.909-0.991
	c-0.358-0.188-0.811-0.068-1.011,0.268c-0.021,0.037-0.041,0.075-0.055,0.113l-1.211,3.311c-0.027,0.073-0.041,0.149-0.041,0.225
	v2.088c0,0.277-0.176,0.525-0.447,0.635l-1.941,0.806c-0.218,0.088-0.469,0.072-0.674-0.04l-1.461-0.806
	c-0.146-0.078-0.315-0.11-0.482-0.088l-2.563,0.343c-0.299,0.041-0.594-0.094-0.745-0.339l-0.433-0.692
	c-0.094-0.148-0.243-0.26-0.42-0.311l-1.163-0.34c-0.276-0.083-0.58-0.006-0.774,0.195l-1.615,1.678
	c-0.127,0.133-0.303,0.212-0.492,0.229l-2.382,0.188c-0.11,0.006-0.218,0.035-0.313,0.088l-4.154,2.234
	c-0.265,0.14-0.595,0.115-0.833-0.061l-1.179-0.881c-0.133-0.098-0.296-0.152-0.465-0.152h-4.464c-0.226,0-0.439-0.096-0.58-0.26
	l-1.126-1.314c-0.256-0.301-0.725-0.346-1.045-0.107c-0.031,0.024-0.059,0.05-0.086,0.078l-1.355,1.407
	c-0.122,0.126-0.189,0.292-0.191,0.463v17.482c0,0.384,0.334,0.695,0.744,0.695h161.054c0.41,0,0.742-0.312,0.742-0.695
	c0-0.001,0-0.002,0-0.003l-0.043-55.205c0.006-0.386-0.322-0.702-0.735-0.708C702.053,239.361,701.854,239.44,701.711,239.577z"/>
<path opacity="0.3" fill="#007BFF" enable-background="new    " d="M701.566,262.216l-2.426,1.514
	c-0.086,0.053-0.16,0.119-0.224,0.195l-1.507,1.862c-0.187,0.223-0.475,0.349-0.778,0.339l-0.492-0.023
	c-0.344-0.016-0.65-0.211-0.793-0.504l-0.313-0.625c-0.206-0.432-0.747-0.625-1.21-0.432c-0.186,0.078-0.34,0.213-0.436,0.383
	l-0.628,1.123c-0.158,0.279-0.472,0.455-0.811,0.455h-3.11c-0.422,0-0.791-0.268-0.891-0.652l-0.747-2.795
	c-0.122-0.459-0.62-0.738-1.112-0.624c-0.197,0.045-0.372,0.151-0.498,0.3l-4.482,5.301c-0.261,0.311-0.714,0.412-1.099,0.249
	l-2.88-1.217c-0.308-0.135-0.67-0.099-0.941,0.091l-1.031,0.713c-0.049,0.034-0.095,0.073-0.135,0.116l-2.722,2.817
	c-0.185,0.199-0.457,0.307-0.739,0.293l-1.777-0.105c-0.097-0.006-0.193,0.002-0.288,0.023l-1.604,0.384
	c-0.373,0.092-0.769-0.046-0.986-0.347l-0.182-0.252c-0.177-0.24-0.472-0.381-0.784-0.372l-1.787,0.051
	c-0.206,0.002-0.405,0.075-0.56,0.199l-0.44,0.343c-0.389,0.305-0.967,0.258-1.293-0.105c-0.039-0.043-0.073-0.09-0.102-0.139
	l-0.464-0.785c-0.235-0.398-0.763-0.557-1.2-0.359l-3.007,1.35l-3.326,1.607c-0.22,0.105-0.476,0.123-0.709,0.049l-2.649-0.82
	c-0.119-0.036-0.245-0.05-0.369-0.041l-5.129,0.408c-0.354,0.033-0.659,0.254-0.784,0.566l-0.743,1.939
	c-0.171,0.445-0.698,0.679-1.176,0.518c-0.044-0.016-0.087-0.032-0.128-0.053l-0.03-0.017c-0.395-0.204-0.889-0.109-1.164,0.223
	l-0.584,0.698c-0.154,0.182-0.38,0.299-0.626,0.324l-1.605,0.162c-0.09,0.009-0.179,0.029-0.264,0.063l-2.543,1.016
	c-0.113,0.045-0.237,0.066-0.359,0.066h-1.223c-0.304,0-0.588-0.139-0.759-0.373l-0.176-0.24c-0.227-0.309-0.64-0.445-1.022-0.338
	l-2.849,0.807c-0.197,0.055-0.405,0.047-0.597-0.021l-1.322-0.476c-0.1-0.036-0.206-0.057-0.313-0.059h-2.842
	c-0.122,0-0.243,0.024-0.356,0.07l-2.821,1.119c-0.198,0.082-0.421,0.094-0.627,0.034l-1.395-0.39
	c-0.276-0.078-0.574-0.03-0.807,0.127l-0.611,0.42c-0.384,0.263-0.917,0.207-1.231-0.127l-0.091-0.096
	c-0.253-0.27-0.657-0.365-1.017-0.238l-2.272,0.813c-0.202,0.067-0.424,0.067-0.627,0l-0.997-0.335
	c-0.183-0.059-0.38-0.064-0.564-0.016l-0.94,0.256c-0.426,0.115-0.877-0.07-1.075-0.439l-0.351-0.66
	c-0.156-0.289-0.474-0.475-0.821-0.475h-0.815c-0.107,0.002-0.213-0.016-0.313-0.046l-3.163-1.038
	c-0.229-0.076-0.482-0.065-0.702,0.035l-2.311,1.037c-0.125,0.056-0.261,0.084-0.398,0.086h-2.919c-0.123,0-0.246,0.023-0.36,0.066
	l-0.595,0.24c-0.384,0.152-0.828,0.046-1.085-0.26l0,0c-0.174-0.211-0.441-0.332-0.725-0.332h-1.474
	c-0.213,0-0.419,0.068-0.583,0.193l-0.855,0.656c-0.364,0.283-0.9,0.258-1.233-0.057l-0.193-0.182
	c-0.257-0.244-0.642-0.318-0.981-0.197l-0.853,0.308c-0.233,0.081-0.491,0.073-0.719-0.024l-2.999-1.301
	c-0.054-0.023-0.109-0.041-0.167-0.053l-2.354-0.542c-0.381-0.089-0.779,0.06-0.99,0.369l-1.48,2.157
	c-0.056,0.083-0.098,0.174-0.122,0.269l-0.448,1.833c-0.053,0.209-0.187,0.393-0.376,0.517l-0.978,0.628
	c-0.242,0.154-0.549,0.192-0.824,0.099l-2.014-0.669c-0.435-0.143-0.917,0.038-1.125,0.422l-1.06,1.854
	c-0.069,0.125-0.106,0.264-0.106,0.404v0.836c-0.002,0.386-0.277,0.723-0.674,0.826l-1.762,0.459
	c-0.188,0.047-0.387,0.039-0.568-0.024l-1.535-0.544c-0.131-0.046-0.27-0.063-0.408-0.052l-2.648,0.226
	c-0.287,0.025-0.57-0.076-0.763-0.275l-0.313-0.325c-0.13-0.138-0.305-0.23-0.498-0.264l-1.207-0.228
	c-0.249-0.047-0.507,0.006-0.715,0.143l-1.59,1.059c-0.142,0.092-0.31,0.146-0.482,0.156l-2.436,0.123
	c-0.093,0.004-0.184,0.021-0.27,0.051l-4.229,1.465c-0.239,0.086-0.507,0.071-0.733-0.039l-1.223-0.587
	c-0.129-0.062-0.272-0.095-0.418-0.095h-4.545c-0.209,0-0.414-0.066-0.576-0.189l-1.102-0.824c-0.32-0.238-0.771-0.252-1.106-0.029
	l-1.179,0.786c-0.242,0.161-0.385,0.423-0.385,0.7v8.24c0,0.475,0.41,0.858,0.918,0.858h160.696c0.508,0,0.918-0.384,0.918-0.858
	l-0.043-32.177c0.008-0.475-0.398-0.864-0.907-0.87C701.902,262.071,701.722,262.12,701.566,262.216z"/>
<ellipse fill="#6C63FF" cx="703.619" cy="262" rx="2.222" ry="2.052"/>
<path opacity="0.3" fill="#007BFF" enable-background="new    " d="M702.075,282.298l-2.982,0.931
	c-0.058,0.019-0.111,0.043-0.163,0.073l-1.636,1.01c-0.119,0.073-0.26,0.109-0.401,0.105l-1.019-0.023
	c-0.192-0.004-0.374-0.082-0.502-0.213l-0.627-0.645c-0.259-0.27-0.702-0.289-0.987-0.047c-0.003,0.002-0.007,0.005-0.01,0.008
	l-1.057,0.926c-0.129,0.115-0.3,0.18-0.477,0.18h-3.662c-0.267,0.001-0.509-0.14-0.626-0.363l-0.838-1.563
	c-0.172-0.323-0.593-0.453-0.938-0.291c-0.021,0.008-0.04,0.02-0.059,0.029l-5.182,3.069c-0.158,0.092-0.347,0.122-0.528,0.086
	l-3.547-0.747c-0.133-0.03-0.27-0.021-0.396,0.022l-1.294,0.448c-0.035,0.011-0.067,0.023-0.098,0.041l-2.862,1.484
	c-0.11,0.055-0.235,0.084-0.36,0.08l-2.119-0.063c-0.037-0.004-0.073-0.004-0.11,0l-2.037,0.242
	c-0.178,0.021-0.357-0.022-0.502-0.12l-0.414-0.294c-0.122-0.084-0.271-0.128-0.423-0.125l-2.235,0.029
	c-0.089,0-0.179,0.017-0.26,0.051l-1.004,0.395c-0.251,0.098-0.539,0.049-0.739-0.121l-0.821-0.679
	c-0.17-0.144-0.405-0.198-0.628-0.149l-3.429,0.773l-3.527,0.853c-0.096,0.019-0.193,0.019-0.288,0l-2.979-0.463
	c-0.048-0.004-0.097-0.004-0.144,0l-5.509,0.231c-0.214,0.01-0.412,0.109-0.536,0.273l-0.83,1.07
	c-0.171,0.223-0.471,0.322-0.754,0.25l-0.886-0.23c-0.191-0.047-0.396-0.017-0.562,0.082l-0.888,0.53
	c-0.103,0.06-0.218,0.095-0.338,0.101l-1.882,0.097c-0.035-0.004-0.071-0.004-0.106,0l-2.716,0.541
	c-0.047,0.01-0.098,0.015-0.146,0.015h-1.592c-0.149,0-0.292-0.043-0.411-0.125l-0.414-0.293c-0.146-0.104-0.332-0.146-0.514-0.121
	l-3.389,0.475c-0.078,0.012-0.158,0.012-0.236,0l-1.593-0.293c-0.043-0.004-0.087-0.004-0.131,0h-3.057
	c-0.048-0.004-0.097-0.004-0.145,0l-3.101,0.616c-0.082,0.016-0.167,0.016-0.251,0l-1.846-0.26
	c-0.117-0.016-0.235-0.004-0.345,0.033l-1.185,0.406c-0.193,0.065-0.409,0.048-0.587-0.048l-0.562-0.293
	c-0.143-0.08-0.311-0.105-0.474-0.076l-2.82,0.502c-0.084,0.014-0.171,0.014-0.255,0l-1.357-0.227c-0.073-0.012-0.148-0.012-0.222,0
	l-1.499,0.203c-0.218,0.03-0.438-0.037-0.593-0.182l-0.495-0.443c-0.132-0.121-0.311-0.189-0.495-0.189h-1.188
	c-0.04,0.002-0.08,0.002-0.12,0l-3.468-0.57c-0.094-0.02-0.191-0.02-0.285,0l-2.62,0.586c-0.054,0.012-0.108,0.019-0.164,0.019
	h-3.156c-0.048-0.006-0.096-0.006-0.145,0l-1.069,0.214c-0.179,0.046-0.372,0.027-0.535-0.059l-0.295-0.18
	c-0.112-0.065-0.243-0.102-0.376-0.102h-1.909c-0.091,0-0.18,0.017-0.264,0.049l-1.336,0.512c-0.186,0.072-0.397,0.064-0.576-0.021
	l-0.708-0.335c-0.138-0.063-0.295-0.085-0.446-0.058l-1.398,0.252c-0.094,0.02-0.193,0.02-0.288,0l-3.241-0.703h-0.072l-2.756-0.319
	c-0.183-0.021-0.368,0.028-0.515,0.134l-1.566,1.137c-0.088,0.063-0.158,0.146-0.204,0.24l-0.351,0.73
	c-0.08,0.163-0.229,0.287-0.408,0.346l-1.204,0.385c-0.111,0.039-0.231,0.047-0.348,0.025l-2.677-0.443
	c-0.217-0.037-0.439,0.026-0.6,0.166l-1.063,0.929c-0.141,0.125-0.221,0.298-0.219,0.478l0,0c0,0.326-0.258,0.602-0.603,0.646
	l-2.01,0.26c-0.074,0.012-0.151,0.012-0.226,0l-1.818-0.322c-0.054-0.007-0.109-0.007-0.162,0l-3.039,0.129
	c-0.127,0.005-0.254-0.023-0.366-0.08l-0.534-0.271c-0.08-0.045-0.172-0.071-0.266-0.078l-1.596-0.152
	c-0.105-0.009-0.213,0.004-0.313,0.037l-1.88,0.624c-0.07,0.023-0.143,0.038-0.218,0.038l-2.674,0.068
	c-0.036-0.004-0.073-0.004-0.109,0l-4.53,0.782c-0.099,0.019-0.199,0.019-0.298,0l-1.542-0.37c-0.059-0.012-0.116-0.018-0.176-0.02
	h-4.862c-0.089,0.002-0.178-0.016-0.261-0.049l-1.523-0.567c-0.16-0.058-0.336-0.058-0.495,0l-1.417,0.472
	c-0.278,0.092-0.465,0.337-0.465,0.612v0.294c0,0.358,0.31,0.65,0.693,0.652c0.002,0,0.002,0,0.004,0h161.139
	c0.384,0,0.695-0.29,0.695-0.649c0-0.002,0-0.002,0-0.003l-0.04-12.392c0.015-0.36-0.286-0.665-0.672-0.678
	C702.233,282.264,702.152,282.274,702.075,282.298z"/>
<ellipse fill="#6C63FF" cx="582.232" cy="275.775" rx="2.222" ry="2.052"/>
<ellipse fill="#6C63FF" cx="686.854" cy="262.877" rx="2.195" ry="2.051"/>
<path fill="#D7D9E1" d="M511.641,179.871v149.653h-28.604c-2.441,0-4.422-1.976-4.422-4.414l0,0V179.884L511.641,179.871z"/>
<ellipse fill="#6C63FF" cx="632.305" cy="276.656" rx="2.195" ry="2.052"/>
<ellipse fill="#6C63FF" cx="660.834" cy="269.327" rx="2.194" ry="2.053"/>
<path fill="none" stroke="#6C63FF" stroke-miterlimit="10" d="M703.307,262.925c-0.002-0.475-0.415-0.857-0.922-0.855
	c-0.18,0.002-0.354,0.051-0.505,0.143l-2.426,1.514c-0.085,0.053-0.161,0.12-0.222,0.197l-1.509,1.86
	c-0.186,0.224-0.476,0.351-0.777,0.341l-0.494-0.023c-0.343-0.018-0.649-0.211-0.791-0.505l-0.314-0.624
	c-0.206-0.432-0.748-0.625-1.21-0.434c-0.187,0.078-0.341,0.213-0.436,0.383l-0.627,1.123c-0.16,0.281-0.472,0.455-0.812,0.455
	h-3.11c-0.422,0.002-0.791-0.268-0.891-0.65l-0.747-2.795c-0.121-0.459-0.62-0.74-1.112-0.625c-0.196,0.046-0.372,0.15-0.497,0.301
	l-4.483,5.299c-0.261,0.311-0.714,0.414-1.099,0.249l-2.881-1.216c-0.307-0.135-0.669-0.1-0.939,0.092l-1.032,0.711
	c-0.049,0.034-0.094,0.074-0.136,0.117l-2.721,2.816c-0.185,0.199-0.457,0.307-0.739,0.293l-1.776-0.104
	c-0.098-0.005-0.195,0.003-0.289,0.024l-1.602,0.383c-0.375,0.091-0.771-0.047-0.988-0.346l-0.182-0.252
	c-0.177-0.24-0.472-0.381-0.783-0.373l-1.787,0.05c-0.207,0.004-0.405,0.075-0.562,0.201l-0.438,0.343
	c-0.389,0.305-0.969,0.256-1.295-0.107c-0.038-0.043-0.072-0.088-0.101-0.137l-0.464-0.785c-0.234-0.398-0.762-0.557-1.201-0.361
	l-3.006,1.352l-3.327,1.607c-0.219,0.104-0.474,0.123-0.708,0.049l-2.649-0.82c-0.119-0.036-0.244-0.052-0.37-0.041l-5.129,0.41
	c-0.354,0.033-0.657,0.254-0.783,0.566l-0.742,1.939c-0.173,0.445-0.698,0.679-1.176,0.518c-0.044-0.016-0.087-0.032-0.13-0.053
	l-0.03-0.017c-0.394-0.204-0.888-0.109-1.164,0.223l-0.582,0.698c-0.155,0.182-0.381,0.299-0.627,0.324l-1.605,0.162
	c-0.091,0.009-0.179,0.029-0.264,0.063l-2.542,1.016c-0.114,0.045-0.237,0.066-0.36,0.066h-1.224c-0.304,0-0.587-0.139-0.759-0.373
	l-0.175-0.24c-0.227-0.309-0.64-0.445-1.022-0.338l-2.849,0.807c-0.195,0.055-0.406,0.047-0.597-0.021l-1.322-0.476
	c-0.101-0.036-0.207-0.057-0.313-0.059h-2.84c-0.124,0-0.246,0.024-0.358,0.07l-2.821,1.119c-0.198,0.082-0.421,0.094-0.627,0.034
	l-1.396-0.39c-0.274-0.078-0.573-0.03-0.806,0.127l-0.611,0.42c-0.383,0.263-0.918,0.207-1.231-0.127l-0.091-0.096
	c-0.253-0.27-0.658-0.365-1.016-0.238l-2.272,0.813c-0.203,0.067-0.425,0.067-0.628,0l-0.997-0.335
	c-0.182-0.059-0.379-0.064-0.563-0.016l-0.94,0.256c-0.425,0.115-0.878-0.07-1.076-0.439l-0.352-0.66
	c-0.155-0.289-0.473-0.475-0.82-0.475h-0.815c-0.106,0.002-0.213-0.016-0.313-0.046l-3.163-1.038
	c-0.229-0.076-0.483-0.065-0.702,0.035l-2.311,1.037c-0.125,0.056-0.262,0.084-0.398,0.086h-2.919c-0.123,0-0.246,0.023-0.361,0.066
	l-0.595,0.24c-0.383,0.152-0.828,0.046-1.085-0.26l0,0c-0.173-0.211-0.441-0.332-0.724-0.332h-1.474
	c-0.212,0-0.419,0.068-0.583,0.193l-0.856,0.656c-0.364,0.283-0.898,0.258-1.232-0.057l-0.194-0.182
	c-0.256-0.244-0.641-0.318-0.98-0.197l-0.854,0.308c-0.232,0.081-0.49,0.073-0.717-0.024l-3-1.301
	c-0.054-0.023-0.109-0.041-0.166-0.053l-2.354-0.542c-0.381-0.089-0.781,0.06-0.992,0.369l-1.479,2.157
	c-0.057,0.083-0.099,0.174-0.123,0.269l-0.447,1.833c-0.055,0.209-0.188,0.393-0.377,0.517l-0.979,0.628
	c-0.242,0.154-0.548,0.192-0.824,0.099l-2.012-0.669c-0.436-0.143-0.918,0.038-1.126,0.422l-1.06,1.854
	c-0.07,0.125-0.106,0.264-0.106,0.404v0.836c-0.001,0.386-0.276,0.723-0.674,0.826l-1.763,0.459
	c-0.187,0.047-0.385,0.039-0.566-0.024l-1.537-0.544c-0.129-0.046-0.27-0.063-0.407-0.052l-2.649,0.226
	c-0.285,0.025-0.568-0.076-0.762-0.275l-0.313-0.325c-0.13-0.138-0.306-0.23-0.498-0.264l-1.207-0.228
	c-0.249-0.047-0.507,0.006-0.715,0.143l-1.59,1.059c-0.142,0.092-0.31,0.146-0.481,0.156l-2.438,0.123
	c-0.091,0.004-0.183,0.021-0.27,0.051l-4.229,1.465c-0.24,0.086-0.506,0.071-0.732-0.039l-1.224-0.587
	c-0.13-0.062-0.272-0.095-0.417-0.095h-4.545c-0.211,0-0.414-0.066-0.578-0.189l-1.1-0.824c-0.32-0.238-0.772-0.252-1.107-0.029
	l-1.178,0.786c-0.242,0.161-0.387,0.423-0.387,0.7"/>
<rect x="531.358" y="308.007" opacity="0.2" fill="#F2F2F2" enable-background="new    " width="183.397" height="0.028"/>
<ellipse opacity="0.3" fill="#6C63FF" enable-background="new    " cx="560.022" cy="308.019" rx="1.587" ry="1.466"/>
<ellipse opacity="0.3" fill="#6C63FF" enable-background="new    " cx="583.186" cy="308.019" rx="1.586" ry="1.466"/>
<ellipse opacity="0.3" fill="#6C63FF" enable-background="new    " cx="606.347" cy="308.019" rx="1.587" ry="1.466"/>
<ellipse opacity="0.3" fill="#6C63FF" enable-background="new    " cx="628.229" cy="308.019" rx="1.567" ry="1.466"/>
<ellipse opacity="0.3" fill="#6C63FF" enable-background="new    " cx="651.115" cy="308.019" rx="1.567" ry="1.466"/>
<ellipse opacity="0.3" fill="#6C63FF" enable-background="new    " cx="674.001" cy="308.019" rx="1.566" ry="1.466"/>
<ellipse opacity="0.3" fill="#6C63FF" enable-background="new    " cx="696.887" cy="308.019" rx="1.566" ry="1.466"/>
<path fill="#FABDBD" d="M507.037,273.416c-0.124-0.324-0.176-0.675-0.151-1.021c0.079-0.586,0.55-1.012,0.989-1.379l6.357-5.331
	c0.668-0.59,1.382-1.122,2.134-1.589c2.192-1.268,4.964-1.42,6.801-3.213c1.072-1.057,1.673-2.543,1.655-4.094
	c-0.021-1.104-0.512-2.34-1.504-2.649c-1.051-0.318-2.075,0.51-2.887,1.282c-2.659,2.529-5.311,5.094-8.279,7.209
	c-2.818,1.999-5.893,3.594-8.395,6.007c-0.457,0.41-0.848,0.894-1.16,1.434c-0.307,0.653-0.52,1.353-0.627,2.072l-0.514,2.603
	c-0.438,2.195-0.791,4.755,0.608,6.439c0.411,0.545,1.032,0.871,1.692,0.886c0.463-0.056,0.909-0.216,1.309-0.472
	c1.041-0.566,2.912-1.107,3.23-2.462C508.696,277.407,507.525,275.007,507.037,273.416z"/>
<path fill="#FABDBD" d="M517.178,307.761c0.477-0.509,0.748-1.189,1.094-1.805c1.008-1.766,2.658-3.016,4.565-3.454
	c0.694-0.188,1.426-0.157,2.103,0.092c0.686,0.269,1.162,0.928,1.225,1.698c0.013,0.811-0.561,1.495-1.106,2.071
	c-1.716,1.823-3.527,3.573-5.587,4.938s-4.398,2.341-6.826,2.512c-0.245,0.029-0.493,0.007-0.729-0.071
	c-0.27-0.133-0.5-0.341-0.666-0.601c-1.28-1.75-1.736-4.016-2.085-6.201c0.126,0.789,4.312-1.049,4.786-0.813
	c0.691,0.344,0.624,1.379,1.129,1.871C515.71,308.601,516.609,308.365,517.178,307.761z"/>
<path fill="#FABDBD" d="M486.689,325.034c-0.023,0.273,0.027,0.551,0.148,0.795c0.284,0.475,0.931,0.48,1.455,0.398
	c1.213-0.219,2.412-0.524,3.587-0.912l10.669-3.252c0.168-0.034,0.326-0.115,0.458-0.232c0.11-0.143,0.183-0.314,0.21-0.496
	c0.375-1.626,0.455-3.313,0.236-4.971c-0.012-0.238-0.087-0.467-0.215-0.664c-0.241-0.232-0.559-0.358-0.885-0.352
	c-1.671-0.18-3.351-0.26-5.031-0.242c-1.09,0.049-2.181,0.023-3.268-0.075c-1.404-0.178-3.018-1.028-4.424-0.899
	c-1.223,0.111-1.174,1.119-1.299,2.187C487.98,319.262,486.717,322.036,486.689,325.034z"/>
<path fill="#3F3D56" d="M520.762,311.646c1.396-0.298,2.818-0.583,4.24-0.397c1.421,0.184,2.835,0.911,3.553,2.213
	c0.604,1.097,0.637,2.466,0.33,3.691c-0.308,1.228-0.92,2.341-1.555,3.417c-1.281,2.139-2.688,4.23-4.558,5.803
	c-0.907,0.764-1.911,1.394-2.784,2.201c-1.863,1.72-3.016,4.123-4.122,6.461c-1.042,2.201-2.095,4.439-2.525,6.858
	c-0.01,0.189-0.091,0.365-0.226,0.491c-0.145,0.07-0.309,0.082-0.461,0.032l-5.123-0.999c-0.232-0.016-0.455-0.111-0.631-0.271
	c-0.218-0.271-0.16-0.661-0.087-1.003c1.11-5.049,3.188-9.802,6.104-13.966c-2.751,2.747-6.588,3.922-10.303,3.154
	c-0.715-0.109-1.389-0.418-1.954-0.893c-1.144-1.085-1.089-2.98-0.836-4.575c0.229-1.425,0.546-2.833,0.948-4.216
	c0.979-3.313,5.113-4.209,7.923-5.021C512.688,313.498,516.709,312.505,520.762,311.646z"/>
<path opacity="0.1" enable-background="new    " d="M516.976,323.323c-0.71,0.353-1.435,0.734-1.949,1.355
	c0.922-1.121,3.55-1.646,4.841-2.168c1.597-0.631,3.33-1.271,4.693-2.389C521.963,320.993,519.428,322.063,516.976,323.323z"/>
<path fill="#E6E7E8" d="M500.395,346.492c-0.445,0.919-0.867,2.116-0.23,2.901c0.491,0.607,1.468,0.711,1.76,1.447
	c0.203,0.516-0.057,1.129-0.475,1.47c-0.439,0.313-0.949,0.5-1.478,0.543c-1.255,0.182-2.528,0.171-3.78-0.035
	c-0.67-0.112-1.371-0.302-1.826-0.829c-0.5-0.576-0.588-1.416-0.65-2.193c-0.29-3.514-0.578-7.027-0.867-10.541
	c-0.08-0.502-0.046-1.016,0.1-1.501c0.346-0.894,1.346-1.265,2.246-1.425c1.012-0.178,2.041-0.222,3.062-0.13
	c0.689,0.063,1.417,0.206,1.927,0.698c0.574,0.542,0.756,1.415,0.904,2.223c0.233,1.25,0.887,2.979,0.748,4.257
	C501.721,344.401,500.83,345.569,500.395,346.492z"/>
<path fill="#CECECE" d="M511.87,343.085c1.946-0.271,3.924-0.035,5.764,0.686c0.592,0.234,1.242,0.617,1.329,1.279
	c0.072,0.542-0.305,1.083-0.768,1.315c-0.486,0.214-1.011,0.313-1.537,0.29c-2.748,0.079-5.5-0.076-8.226-0.463
	c-0.702-0.102-1.43-0.229-2.003-0.667c-0.574-0.438-0.932-1.281-0.628-1.956c0.327-0.721,1.225-0.947,1.655-1.602
	c0.313-0.475,0.389-1.169,0.879-1.418c0.346-0.177,0.768-0.043,1.116,0.09c0.513,0.191,1.765,0.384,2.126,0.84
	C511.742,341.671,511.883,343.083,511.87,343.085z"/>
<ellipse fill="#FABDBD" cx="519.228" cy="282.683" rx="6.824" ry="7.217"/>
<path fill="#007BFF" d="M503.033,279.499c1.099-0.848,2.482-1.137,3.818-1.406c0.459-0.092,0.967-0.176,1.37,0.072
	c0.29,0.22,0.517,0.517,0.659,0.861c0.418,0.703,0.727,1.473,0.914,2.279c0.145,0.813,0,1.729-0.535,2.322
	c-0.404,0.443-0.986,0.664-1.401,1.084c-0.573,0.598-0.739,1.529-0.611,2.369c0.165,0.836,0.473,1.634,0.906,2.354
	c1.004,1.864,2.146,3.642,3.417,5.315c1.324,1.744,2.818,3.418,3.586,5.495c0.825,2.192,0.741,4.827-0.512,6.771
	c-1.252,1.946-3.775,2.981-5.86,2.153c0.384,0.391,0.599,0.93,0.597,1.494l-2.859,1.521c-0.208,0.085-0.386,0.234-0.512,0.43
	c-0.078,0.204-0.096,0.426-0.052,0.641c0.142,1.23,0.429,2.458,0.349,3.694c-0.08,1.239-0.615,2.542-1.673,3.079
	c-0.976,0.496-2.126,0.231-3.187,0c-2.479-0.529-5-0.808-7.529-0.834c-1.254,0-2.562,0.033-3.714-0.479
	c-1.588-0.742-2.62-2.396-2.636-4.232c0-0.952,0.294-1.874,0.579-2.778c1.605-5.112,3.218-10.236,5.379-15.119
	c1.401-3.252,3.111-6.346,5.104-9.234c0.513-0.732,1.051-1.449,1.616-2.149c0.402-0.499,1.311-1.204,1.475-1.841
	c0.148-0.572-0.182-1.254,0-1.896C501.947,280.679,502.408,279.989,503.033,279.499z"/>
<path fill="#3F3D56" d="M486.297,325.189c2.992-1.46,5.99-2.923,9.103-4.063c2.306-0.836,4.849-1.486,7.101-0.541
	c0.672,0.27,1.281,0.698,1.937,1.035c2.181,1.119,4.673,1.281,7.083,1.566c5.361,0.632,10.631,1.951,15.692,3.928
	c1.214,0.474,2.516,1.083,3.103,2.299c0.404,0.84,0.395,1.828,0.335,2.768c-0.089,1.402-0.292,2.875-1.118,3.971
	c-1.372,1.813-3.867,1.949-5.995,2.521c-1.652,0.444-3.204,1.226-4.745,1.999c-4.981,2.512-9.963,5.021-14.856,7.748
	c-0.576,0.322-1.28,0-1.76-0.457c-1.496-1.398-2.495-3.322-3.074-5.342c-0.579-2.021-0.745-4.146-0.781-6.256
	c-1.911,0-3.466-0.092-5.38-0.087c-0.707,0-1.438,0-2.092-0.27c-1.281-0.542-1.983-1.995-2.563-3.327
	C487.291,330.319,486.127,327.753,486.297,325.189z"/>
<path opacity="0.1" enable-background="new    " d="M521.062,332.696c-1.351-0.693-2.91-0.713-4.411-0.696
	c-0.914-0.019-1.829,0.055-2.73,0.218c-1.409,0.286-2.689,1.004-3.999,1.586c-3.188,1.414-6.615,2.126-10.073,2.092"/>
<path fill="#3F3D56" d="M528.82,283.7c-0.973,1.049-2.32,1.625-3.676,1.951c-1.355,0.324-2.748,0.459-4.098,0.775
	c-1.674,0.39-3.507,1.326-3.885,3.095c-0.148,0.696-0.04,1.423-0.051,2.139c-0.011,0.715-0.172,1.493-0.704,1.932
	c-0.269,0.19-0.563,0.337-0.874,0.433c-5.463,2.094-9.385,8.053-9.34,14.201c-1.734-1.066-2.916-2.912-3.207-5.012
	c0,1.912-1.537,3.871-0.679,5.553c-3.839-2.633-4.933-8.058-2.444-12.117c0.139-0.226,0.287-0.445,0.444-0.656
	c0.688-0.926,1.536-1.691,2.278-2.578c2.055-2.518,3.026-5.823,2.683-9.13c-0.148-1.392-0.532-2.801-0.256-4.165
	c0.402-1.896,1.978-3.219,3.477-4.334c1.052-0.84,2.179-1.564,3.366-2.168c1.551-0.732,3.242-1.084,4.928-1.271
	c3.751-0.446,7.08,0.172,9.404,3.523c0.533,0.769,1.024,1.433,1.777,1.957c0.475,0.328,1.063,0.541,1.449,0.986
	C530.602,280.198,529.93,282.511,528.82,283.7z"/>
<ellipse fill="#007BFF" cx="476.3" cy="345.553" rx="6.681" ry="1.358"/>
<ellipse fill="#3F3D56" cx="476.189" cy="344.977" rx="0.779" ry="1.075"/>
<ellipse fill="#3F3D56" cx="476.189" cy="343.66" rx="0.779" ry="1.076"/>
<ellipse fill="#3F3D56" cx="476.189" cy="342.343" rx="0.779" ry="1.075"/>
<ellipse fill="#3F3D56" cx="476.189" cy="341.029" rx="0.779" ry="1.075"/>
<ellipse fill="#3F3D56" cx="476.189" cy="339.712" rx="0.779" ry="1.075"/>
<ellipse fill="#3F3D56" cx="476.189" cy="338.396" rx="0.779" ry="1.075"/>
<ellipse fill="#3F3D56" cx="476.189" cy="337.08" rx="0.779" ry="1.075"/>
<path fill="#007BFF" d="M479.1,328.073c0.106-0.141,0.203-0.289,0.289-0.446l-2.049-0.354l2.207,0.015
	c0.428-0.984,0.455-2.113,0.072-3.119l-2.963,1.624l2.732-2.125c-1.021-1.89-3.296-2.546-5.082-1.465
	c-1.785,1.079-2.406,3.485-1.385,5.374c0.094,0.174,0.201,0.341,0.319,0.498c-0.165,0.223-0.309,0.465-0.425,0.721l2.652,1.457
	l-2.816-1.005c-0.404,1.261-0.18,2.653,0.6,3.7c-1.271,1.711-0.992,4.188,0.625,5.531c1.617,1.345,3.959,1.047,5.23-0.662
	c1.062-1.429,1.062-3.441,0-4.869c1.064-1.432,1.064-3.445,0-4.875H479.1z"/>
<path opacity="0.1" enable-background="new    " d="M472.446,330.511c-0.001,0.885,0.279,1.742,0.797,2.438
	c-1.271,1.711-0.991,4.188,0.626,5.531c1.617,1.345,3.959,1.047,5.23-0.662c1.062-1.429,1.062-3.441,0-4.869
	C479.6,332.272,472.446,330.065,472.446,330.511z"/>
<path fill="#EDEDF4" d="M728.843,172.98v6.753H478.315v-6.753c0-1.281,0.981-2.319,2.192-2.319H726.65
	C727.86,170.661,728.843,171.699,728.843,172.98L728.843,172.98z"/>
<rect x="483.089" y="187.112" fill="#EDEDF4" width="24.079" height="2.709"/>
<rect x="483.089" y="196.284" fill="#EDEDF4" width="24.079" height="2.709"/>
<rect x="483.089" y="206.248" fill="#EDEDF4" width="24.079" height="2.708"/>
<rect x="483.089" y="216.806" fill="#EDEDF4" width="24.079" height="2.708"/>
<path fill="#EDEDF4" d="M565.948,203.696c0,1.812-1.25,3.28-2.792,3.28h-39.033c-1.542,0-2.793-1.469-2.793-3.28v-14.114
	c0-1.812,1.251-3.28,2.793-3.28h39.033c1.542,0,2.792,1.469,2.792,3.28V203.696z"/>
<path fill="#EDEDF4" d="M618.366,203.696c0,1.812-1.25,3.28-2.793,3.28h-39.032c-1.543,0-2.793-1.469-2.793-3.28v-14.114
	c0-1.812,1.25-3.28,2.793-3.28h39.032c1.543,0,2.793,1.469,2.793,3.28V203.696z"/>
<path fill="#EDEDF4" d="M672.973,203.696c0,1.812-1.249,3.28-2.792,3.28h-39.032c-1.543,0-2.793-1.469-2.793-3.28v-14.114
	c0-1.812,1.25-3.28,2.793-3.28h39.032c1.543,0,2.792,1.469,2.792,3.28V203.696z"/>
<path fill="#EDEDF4" d="M724.208,203.434c0,1.812-1.249,3.28-2.792,3.28h-39.032c-1.542,0-2.794-1.469-2.794-3.28v-14.114
	c0-1.811,1.252-3.279,2.794-3.279h39.032c1.543,0,2.792,1.469,2.792,3.279V203.434z"/>
<path fill="#FFFFFF" stroke="#EDEDED" stroke-miterlimit="10" d="M734.24,208.93c0,1.811-1.251,3.279-2.794,3.279h-39.031
	c-1.543,0-2.793-1.469-2.793-3.279v-14.114c0-1.812,1.25-3.28,2.793-3.28h39.031c1.543,0,2.794,1.469,2.794,3.28V208.93z"/>
<ellipse opacity="0.8" fill="#FA5959" enable-background="new    " cx="483.226" cy="175.197" rx="1.024" ry="1.084"/>
<ellipse opacity="0.8" fill="#FED253" enable-background="new    " cx="486.557" cy="175.197" rx="1.023" ry="1.084"/>
<ellipse opacity="0.8" fill="#8CCF4D" enable-background="new    " cx="490.143" cy="175.197" rx="1.024" ry="1.084"/>
<g opacity="0.5">
	<rect x="709.855" y="197.23" fill="#007BFF" width="12.963" height="2.049"/>
	<rect x="709.855" y="200.819" fill="#007BFF" width="21.356" height="2.05"/>
	<rect x="709.855" y="204.406" fill="#007BFF" width="21.356" height="2.049"/>
</g>
<rect x="695.081" y="195.827" fill="#6C63FF" width="11.015" height="10.972"/>
<linearGradient id="SVGID_4_" gradientUnits="userSpaceOnUse" x1="914.1104" y1="268.5625" x2="954.2012" y2="268.5625" gradientTransform="matrix(-0.8518 0 0 1 1509.4365 0)">
	<stop  offset="0" style="stop-color:#808080;stop-opacity:0.25"/>
	<stop  offset="0.54" style="stop-color:#808080;stop-opacity:0.12"/>
	<stop  offset="1" style="stop-color:#808080;stop-opacity:0.1"/>
</linearGradient>
<path fill="url(#SVGID_4_)" d="M697.377,209.561c0.594-0.729,1.579-0.971,2.293-0.435c0.555,0.415,0.859,1.187,1.139,1.916
	c0.408,1.083,1.006,2.097,1.189,3.268c0.504,3.226,2.572,5.731,3.401,8.85c0.297,1.113,0.438,2.308,0.907,3.323
	c0.221,0.443,0.469,0.868,0.741,1.269c1.073,1.681,2.022,3.479,2.836,5.371c0.472,0.113,0.892,0.609,1.292,0.997
	c0.515,0.495,1.109,0.846,1.745,1.027c0.256,0.036,0.502,0.147,0.717,0.323c0.302,0.313,0.343,0.873,0.586,1.248
	c0.178,0.248,0.403,0.435,0.655,0.543c0-0.095,0.01-0.189,0.013-0.286c0.011-0.502,0.018-1.006,0.018-1.509
	c-1.454-2.125-1.447-5.246,0.013-7.363c-0.017-0.784-0.102-1.565-0.251-2.328c-0.076-0.37-0.064-0.825,0.177-1.066
	c0.121-0.116,0.275-0.16,0.404-0.271c0.181-0.19,0.33-0.425,0.437-0.688c0.668-1.175,1.924-1.573,2.963-0.939
	c0.788,0.515,1.265,1.544,1.963,2.242c0.359,0.357,0.771,0.626,1.129,0.986c0.716,0.776,1.225,1.805,1.46,2.947
	c0.229,1.139,0.362,2.305,0.397,3.478c0.037,0.353,0.025,0.71-0.033,1.057c-0.07,0.292-0.179,0.565-0.32,0.813
	c-0.666,1.344-1.601,2.451-2.713,3.21c-0.004,0.069-0.004,0.14,0,0.208c0,0.109,0.029,0.215,0.049,0.322l0.125-0.043
	c0.468-0.13,0.972-0.113,1.392-0.403c0.714-0.499,0.932-1.715,1.616-2.272c0.059-0.047,0.119-0.088,0.183-0.122
	c0.049-1.542,0.286-3.063,0.702-4.516c0.202-0.694,0.448-1.401,0.418-2.14c-0.026-0.686-0.291-1.318-0.525-1.938
	c-0.822-2.14-1.399-4.408-1.964-6.671c-0.363-1.421-0.727-2.844-1.091-4.268c-0.356-0.327-0.677-0.706-0.959-1.131
	c-0.582-0.842-0.966-1.865-1.11-2.962c-0.141-1.104,0.081-2.23,0.613-3.132c0.235-0.43,0.609-0.714,1.025-0.78
	c0.366,0.011,0.712,0.207,0.958,0.543c0.361,0.512,0.641,1.106,0.82,1.751c0.357,1.048,0.721,2.136,0.685,3.273
	c-0.027,0.943-0.312,1.996,0.132,2.764c1.451,2.511,2.546,5.398,3.695,8.146c0.291,0.656,0.541,1.339,0.747,2.043
	c0.277,1.142,0.41,2.329,0.391,3.521c0.011,2.236-0.235,4.459-0.48,6.676c-0.111,1-0.252,2.061-0.636,2.925
	c0.251,1.071,0.383,2.179,0.391,3.294c0.011,0.258-0.021,0.515-0.095,0.756c-0.128,0.281-0.291,0.535-0.481,0.754
	c-0.519,0.73-0.756,1.701-0.656,2.664c0.064,0.898-0.001,1.803-0.193,2.672c-0.437,2.405-0.873,4.809-1.222,7.232
	c-0.083,0.451-0.111,0.916-0.083,1.375c0.067,0.656,0.359,1.279,0.296,1.938c-0.062,0.305-0.108,0.615-0.139,0.928
	c0.014,0.238,0.059,0.471,0.131,0.692c0.497,1.796,1.835,5.915,1.819,7.815l-0.35-0.102c0.353,2.467,1.175,4.826,1.606,7.286
	c0.301,1.792,0.437,3.62,0.406,5.45c-0.028,0.821-0.018,1.645,0.035,2.465c0.067,0.729,0.218,1.441,0.3,2.167
	c0.095,0.975,0.13,1.954,0.105,2.935c0.023,1.54-0.05,3.08-0.219,4.604c-0.334,2.602,0.251,5.186,0.411,7.811
	c0.081,1.836,0.247,3.665,0.501,5.479c0.121,0.763,0.271,1.521,0.354,2.293c0.244,2.293-0.111,4.654,0.272,6.918
	c0.182,1.057,0.505,2.246,0.028,3.151c-0.15,0.284-0.367,0.507-0.529,0.78c-0.184,0.263-0.241,0.627-0.154,0.956
	c0.095,0.249,0.313,0.411,0.367,0.679c0.087,0.416-0.264,0.757-0.578,0.936l-0.09,0.044c0.043,0.289-0.021,0.585-0.17,0.813
	c-0.188,0.217-0.418,0.367-0.67,0.432l-4.119,1.551c-0.919,0.347-1.919,0.688-2.838,0.406c-0.021,0.162-0.076,0.313-0.163,0.438
	c-0.187,0.22-0.419,0.369-0.67,0.434l-4.089,1.539c-1.052,0.396-2.206,0.785-3.217,0.25c-0.289-0.148-0.544-0.387-0.737-0.693
	c-0.325-0.592-0.42-1.332-0.261-2.021c0.05-0.347,0.188-0.663,0.396-0.904c0.28-0.242,0.611-0.377,0.951-0.389
	c0.29-0.01,0.576-0.103,0.834-0.271c0.078-0.061,0.142-0.145,0.189-0.246c-0.235-0.287-0.464-0.587-0.685-0.898
	c0.179-0.075,0.241-0.396,0.26-0.628c0.259-3.452-0.789-6.823-1.186-10.253c-0.2-1.721-0.235-3.465-0.104-5.196
	c0.048-0.652,0.12-1.303,0.142-1.96c0.103-3.412-1.212-6.694-1.165-10.11c0.021-1.599-0.654-3.175-0.984-4.722
	c-0.288-1.371-0.297-2.807-0.303-4.227l-0.053-11.176c0-1.512,0-3.06,0.389-4.486c0.196-0.794,0.25-1.631,0.157-2.455
	c-1.11-0.609-2.163-1.511-3.35-1.354c-0.317-1.042,0.059-4.518,0.355-5.571c1.167-4.146,1.394-8.61,0.655-12.906
	c-0.269-1.541,0.101-3.18-0.2-4.716c-0.055-0.36-0.165-0.704-0.323-1.013c-0.166-0.313-0.448-0.498-0.749-0.49
	c0-0.94,0.016-1.896,0.064-2.85c-0.481-0.488-0.893-1.076-1.215-1.736c-0.655-1.355-1.027-2.881-1.479-4.354
	c-0.8-2.601-1.894-5.041-2.813-7.585c-0.918-2.543-1.008-5.326-1.745-7.959c-0.406-1.45-1.246-2.651-2.347-3.354
	c-0.436-0.271-0.9-0.467-1.217-0.91c-0.24-0.371-0.387-0.819-0.423-1.292C696.536,211.398,696.796,210.334,697.377,209.561z
	 M722.906,321.472c-0.089-0.121-0.177-0.244-0.26-0.375c0.275-0.055,0.611-0.305,0.618-0.651c-0.021-0.348-0.081-0.688-0.18-1.015
	c-0.129-0.589-0.149-1.205-0.061-1.805c0.061-0.42,0.174-0.813,0.244-1.24c0.066-0.465,0.111-0.934,0.131-1.404
	c0.118-1.689,0.384-3.356,0.794-4.973c0.396-1.568-0.146-3.156-0.285-4.79c-0.068-0.773-0.037-1.573-0.256-2.302
	c-0.129-0.434-0.341-0.813-0.47-1.252c-0.298-1.005-0.122-2.123,0.062-3.172c-1.292-2.906-1.719-6.374-2.205-9.646
	c-0.273-1.836-0.548-3.672-0.821-5.508c-0.119-0.812-0.252-1.668-0.654-2.324c-0.425,2.433-0.592,4.921-0.498,7.407
	c0.051,0.722,0.044,1.446-0.021,2.167c-0.101,0.788-0.364,1.531-0.517,2.309c-0.341,1.708-0.143,3.504-0.22,5.262
	c-0.027,0.71-0.102,1.42-0.125,2.13c-0.106,3.14,0.739,6.192,1.575,9.159c0.512,1.816,0.626,3.883,0.872,5.787
	c0.232,1.824,0.462,3.649,0.579,5.489c0.035,0.561,0.063,1.138,0.118,1.707c0.14-0.038,0.281-0.065,0.426-0.083
	c0.29-0.012,0.574-0.105,0.833-0.271C722.739,321.92,722.852,321.71,722.906,321.472L722.906,321.472z"/>
<path fill="#3F3D56" d="M713.965,325.189c-0.342,0.012-0.671,0.146-0.952,0.384c-0.206,0.24-0.346,0.555-0.396,0.9
	c-0.16,0.686-0.064,1.424,0.261,2.012c0.194,0.303,0.448,0.538,0.737,0.684c1.011,0.541,2.164,0.148,3.218-0.245l4.119-1.54
	c0.25-0.063,0.481-0.214,0.669-0.432c0.232-0.387,0.239-0.916,0.018-1.314c-0.221-0.381-0.523-0.681-0.873-0.864
	c-1.282-0.773-2.727-0.952-4.145-0.985c-0.524-0.013-1.04-0.154-1.396,0.347c-0.188,0.271-0.155,0.559-0.437,0.789
	C714.533,325.089,714.252,325.179,713.965,325.189z"/>
<path fill="#3F3D56" d="M721.748,322.374c-0.341,0.009-0.671,0.143-0.951,0.382c-0.205,0.241-0.344,0.557-0.397,0.899
	c-0.159,0.686-0.063,1.424,0.263,2.014c0.193,0.303,0.447,0.539,0.737,0.685c1.01,0.542,2.163,0.147,3.216-0.246l4.119-1.542
	c0.251-0.062,0.483-0.211,0.67-0.431c0.232-0.388,0.24-0.916,0.019-1.313c-0.223-0.382-0.523-0.682-0.874-0.863
	c-1.282-0.776-2.726-0.954-4.135-0.986c-0.521,0-1.038-0.155-1.395,0.346c-0.188,0.271-0.155,0.562-0.436,0.789
	C722.324,322.272,722.04,322.366,721.748,322.374z"/>
<path fill="#3F3D56" d="M718.168,266.872c2.428-0.303,4.87-0.388,7.307-0.255c0.161-0.002,0.321,0.028,0.474,0.092
	c0.536,0.271,0.62,1.144,0.672,1.858c0.205,2.891,1.233,5.586,1.745,8.422c0.302,1.781,0.438,3.6,0.406,5.418
	c-0.028,0.813-0.017,1.627,0.035,2.438c0.067,0.727,0.218,1.433,0.3,2.167c0.095,0.967,0.13,1.941,0.106,2.916
	c0.022,1.526-0.052,3.055-0.219,4.568c-0.334,2.585,0.252,5.147,0.41,7.758c0.081,1.825,0.248,3.643,0.501,5.443
	c0.122,0.758,0.271,1.512,0.354,2.277c0.244,2.278-0.111,4.627,0.273,6.873c0.181,1.051,0.504,2.231,0.027,3.131
	c-0.15,0.284-0.366,0.504-0.529,0.775c-0.183,0.261-0.24,0.623-0.153,0.951c0.094,0.246,0.312,0.409,0.367,0.672
	c0.086,0.414-0.265,0.755-0.579,0.931c-2.368,1.325-5.42,0.39-7.017-2.152c0.274-0.055,0.61-0.302,0.617-0.646
	c-0.02-0.346-0.08-0.686-0.179-1.01c-0.13-0.586-0.15-1.198-0.063-1.794c0.063-0.415,0.175-0.813,0.246-1.231
	c0.065-0.461,0.109-0.926,0.13-1.394c0.118-1.678,0.384-3.335,0.796-4.941c0.394-1.557-0.147-3.134-0.287-4.759
	c-0.068-0.768-0.037-1.563-0.255-2.285c-0.129-0.434-0.341-0.814-0.469-1.244c-0.301-0.999-0.123-2.108,0.061-3.15
	c-1.292-2.891-1.72-6.334-2.206-9.585c-0.273-1.823-0.548-3.647-0.82-5.472c-0.12-0.813-0.254-1.655-0.655-2.308
	c-0.426,2.415-0.592,4.891-0.497,7.358c0.049,0.713,0.042,1.43-0.022,2.139c-0.101,0.783-0.364,1.523-0.517,2.295
	c-0.341,1.695-0.142,3.479-0.218,5.228c-0.028,0.704-0.104,1.409-0.127,2.116c-0.106,3.117,0.739,6.15,1.574,9.096
	c0.515,1.807,0.627,3.861,0.874,5.75c0.23,1.813,0.461,3.625,0.578,5.454c0.106,1.681,0.152,3.497,0.995,4.817
	c-0.768,0.619-1.564,1.25-2.464,1.465c-1.051,0.204-2.125-0.054-3.039-0.729c-0.907-0.676-1.719-1.533-2.4-2.537
	c0.18-0.074,0.242-0.394,0.26-0.625c0.26-3.426-0.788-6.771-1.185-10.184c-0.201-1.711-0.235-3.445-0.105-5.164
	c0.048-0.648,0.12-1.293,0.143-1.943c0.103-3.391-1.212-6.656-1.165-10.047c0.021-1.588-0.655-3.155-0.984-4.691
	c-0.289-1.355-0.297-2.789-0.304-4.195l-0.052-11.107c0-1.504,0-3.039,0.389-4.459c0.479-1.703-0.068-3.665-0.151-5.467
	C713.415,266.797,715.8,267.124,718.168,266.872z"/>
<path fill="#A0616A" d="M710.389,234.964c-0.917-2.328-2.038-4.524-3.341-6.55c-0.272-0.396-0.52-0.816-0.741-1.257
	c-0.47-1.007-0.61-2.196-0.907-3.303c-0.829-3.099-2.897-5.588-3.401-8.793c-0.184-1.161-0.781-2.167-1.189-3.25
	c-0.279-0.727-0.584-1.49-1.139-1.896c-0.714-0.541-1.699-0.29-2.293,0.434c-0.579,0.766-0.838,1.821-0.7,2.858
	c0.035,0.469,0.182,0.917,0.423,1.283c0.316,0.441,0.789,0.643,1.217,0.907c1.099,0.692,1.939,1.886,2.346,3.329
	c0.73,2.617,0.821,5.387,1.747,7.907c0.925,2.522,2.012,4.947,2.812,7.528c0.451,1.466,0.816,2.979,1.479,4.335
	c0.663,1.354,1.707,2.488,2.959,2.691c-0.002-0.978,0.123-1.951,0.366-2.881C710.29,237.231,710.785,235.961,710.389,234.964z"/>
<path fill="#A0616A" d="M723.898,236.984c-0.056-1.915,0.186-3.826,0.708-5.629c0.2-0.69,0.447-1.392,0.416-2.126
	c-0.025-0.68-0.29-1.309-0.525-1.924c-0.823-2.126-1.399-4.383-1.964-6.632l-1.091-4.236c-0.354-0.325-0.677-0.702-0.957-1.124
	c-0.582-0.835-0.967-1.854-1.112-2.941c-0.139-1.098,0.082-2.219,0.613-3.113c0.236-0.428,0.61-0.71,1.026-0.771
	c0.366,0.008,0.712,0.205,0.957,0.541c0.363,0.509,0.641,1.099,0.82,1.74c0.359,1.04,0.721,2.122,0.687,3.25
	c-0.029,0.938-0.313,1.983,0.13,2.744c1.452,2.495,2.546,5.363,3.697,8.092c0.289,0.651,0.539,1.329,0.746,2.028
	c0.278,1.136,0.409,2.319,0.391,3.505c0.012,2.223-0.236,4.43-0.48,6.633c-0.153,1.375-0.357,2.877-1.198,3.791
	C725.888,239.435,725.009,238.073,723.898,236.984z"/>
<ellipse fill="#A0616A" cx="718.346" cy="232.423" rx="4.528" ry="5.621"/>
<path fill="#A0616A" d="M720.546,238.341c0.108,1.02,0.548,1.928,0.976,2.805c0.259,0.541,0.587,1.119,1.09,1.179
	c-1.31,0.856-2.688,1.544-4.11,2.054c-0.485,0.201-0.993,0.303-1.504,0.299c-0.433-0.039-0.855-0.174-1.249-0.398
	c-1.75-0.95-3.049-2.85-3.522-5.146c0.563,0.019,1.125-0.033,1.681-0.159c0.31-0.071,0.643-0.186,0.823-0.502
	c0.127-0.275,0.187-0.59,0.171-0.906c0.021-0.939,0.021-1.875,0-2.813c1.112-0.088,2.229,0.08,3.29,0.502
	c0.437,0.174,0.873,0.389,1.32,0.528c0.276,0.082,1.033,0,1.235,0.196C721.054,236.28,720.464,237.651,720.546,238.341z"/>
<path fill="#007BFF" d="M718.549,241.758c0.103-1.516,0.975-2.778,2.164-3.136c0.468-0.128,0.972-0.115,1.391-0.402
	c0.716-0.495,0.932-1.704,1.616-2.259c0.686-0.556,1.663-0.247,2.26,0.458c0.599,0.705,0.902,1.7,1.146,2.677
	c0.365,1.321,0.563,2.706,0.588,4.104c0.01,0.257-0.023,0.513-0.097,0.753c-0.129,0.279-0.291,0.531-0.482,0.751
	c-0.518,0.722-0.756,1.685-0.654,2.644c0.063,0.893-0.002,1.793-0.194,2.656c-0.436,2.388-0.873,4.776-1.223,7.185
	c-0.081,0.444-0.108,0.901-0.082,1.354c0.067,0.65,0.361,1.271,0.297,1.92c-0.063,0.305-0.108,0.613-0.14,0.924
	c0.015,0.236,0.058,0.467,0.131,0.688c0.497,1.788,1.835,5.877,1.82,7.766c-2.324-0.739-5.75-0.906-8.148-0.917
	c-0.66-0.011-1.321,0.026-1.979,0.108c-1.576,0.209-3.191,0.781-4.722,0.253c-1.418-0.491-2.678-1.896-4.145-1.718
	c-0.318-1.037,0.059-4.49,0.354-5.537c1.166-4.117,1.394-8.555,0.655-12.82c-0.269-1.533,0.1-3.158-0.198-4.685
	c-0.055-0.359-0.166-0.7-0.326-1.008c-0.165-0.31-0.447-0.497-0.748-0.487c-0.027-2.448,0.155-4.894,0.545-7.295
	c0.146-0.854,0.449-1.861,1.142-2.008c0.624-0.129,1.149,0.523,1.65,1.006c0.516,0.491,1.11,0.84,1.745,1.018
	c0.255,0.036,0.501,0.146,0.716,0.322c0.301,0.309,0.342,0.867,0.587,1.244c0.437,0.674,1.412,0.615,1.722,1.393
	c0.069,0.232,0.125,0.47,0.166,0.713c0.146,0.46,0.394,0.859,0.718,1.15C717.311,241.138,717.903,241.546,718.549,241.758z"/>
<path fill="#2D293D" d="M714.667,226.447c-0.077-0.372-0.065-0.813,0.177-1.062c0.119-0.117,0.274-0.16,0.403-0.271
	c0.182-0.189,0.331-0.422,0.437-0.686c0.674-1.169,1.93-1.561,2.97-0.929c0.788,0.513,1.266,1.536,1.964,2.229
	c0.358,0.356,0.771,0.623,1.128,0.978c0.716,0.771,1.225,1.793,1.46,2.931c0.229,1.133,0.361,2.293,0.396,3.461
	c0.037,0.35,0.025,0.705-0.033,1.049c-0.07,0.287-0.18,0.557-0.32,0.8c-0.718,1.354-1.669,2.588-2.858,3.283
	c-1.189,0.696-2.636,0.813-3.811,0.085c-0.118-0.063-0.219-0.162-0.292-0.293c-0.067-0.197-0.083-0.416-0.044-0.626
	c0.063-0.827-0.07-1.659-0.381-2.396c-0.219-0.541-0.543-1.006-0.721-1.57c-0.16-0.627-0.229-1.287-0.206-1.945
	C714.918,229.788,715.012,228.089,714.667,226.447z"/>
<path fill="#3F3D56" d="M723.928,328.186h2.221c0.121,0,0.223,0.159,0.223,0.356c0,0.198-0.102,0.357-0.223,0.357h-0.444v4.768
	h7.603c0.041-0.08,0.103-0.127,0.166-0.129h2.22c0.123,0,0.223,0.161,0.223,0.358c0,0.196-0.1,0.355-0.223,0.355h-0.442v4.896h7.338
	c0.027-0.147,0.111-0.253,0.208-0.257h2.221c0.123,0,0.223,0.161,0.223,0.357c0,0.197-0.1,0.356-0.223,0.356h-0.222v5.03h7.456
	c0.028-0.021,0.06-0.031,0.09-0.033h2.222c0.121,0,0.221,0.161,0.221,0.355c0,0.199-0.1,0.359-0.221,0.359h-0.224v4.799h7.363
	c0.04-0.096,0.107-0.155,0.18-0.159h2.221c0.122,0,0.221,0.159,0.221,0.356s-0.099,0.355-0.221,0.355h-0.223v5.355h-50.167v-27.839
	H723.928z"/>
<linearGradient id="SVGID_5_" gradientUnits="userSpaceOnUse" x1="475.6406" y1="284.0889" x2="475.6406" y2="405.9922" gradientTransform="matrix(1 0 0 -1 129.1201 502.7754)">
	<stop  offset="0" style="stop-color:#808080;stop-opacity:0.25"/>
	<stop  offset="0.54" style="stop-color:#808080;stop-opacity:0.12"/>
	<stop  offset="1" style="stop-color:#808080;stop-opacity:0.1"/>
</linearGradient>
<path fill="url(#SVGID_5_)" d="M639.964,208.176c-0.553-2.568-0.282-5.336-1.727-7.648c-0.146-0.271-0.374-0.51-0.664-0.688
	c-0.363-0.155-0.77-0.23-1.18-0.216c-1.307-0.045-2.618-0.055-3.925-0.032c-0.372-0.036-0.742,0.079-0.991,0.306l-0.05,0.091
	c-1.5-1.35-2.635-3.056-4.246-4.311c0.228-0.063,0.46-0.126,0.692-0.176c-0.021-0.126-0.051-0.253-0.089-0.378
	c0-0.035,0-0.072-0.033-0.112s-0.056-0.171-0.089-0.257c-0.033-0.085-0.033-0.08-0.05-0.125l-0.099-0.234
	c0-0.045-0.045-0.086-0.062-0.127c-0.017-0.039-0.077-0.156-0.122-0.232c-0.022-0.037-0.043-0.074-0.061-0.113l-0.144-0.242
	c-0.019-0.035-0.039-0.068-0.062-0.1c-0.055-0.085-0.104-0.172-0.166-0.252c-0.017-0.028-0.035-0.055-0.056-0.081
	c-0.061-0.094-0.121-0.185-0.188-0.273c-0.009-0.019-0.022-0.034-0.038-0.05c-0.072-0.104-0.149-0.207-0.227-0.311l0,0
	c-0.626-0.841-1.329-1.664-1.844-2.52c-0.902-1.516-1.196-3.221-1.8-4.832c-0.603-1.611-1.66-3.248-3.46-4.014
	c-0.863-0.365-2.026-0.68-2.109-1.48c0.001-0.262,0.076-0.518,0.222-0.751c0.245-0.517,0.547-1.013,0.902-1.485
	c0.128-0.176,0.267-0.346,0.41-0.513l0.11-0.126c0.111-0.125,0.222-0.248,0.344-0.369l0.144-0.148
	c0.116-0.112,0.232-0.225,0.359-0.333l0.145-0.134c0.17-0.15,0.354-0.301,0.554-0.45c0.166-0.107,0.299-0.245,0.387-0.401
	c0.037-0.156,0.037-0.318,0-0.477c-0.094-1.282,0.742-2.483,1.661-3.519c0.919-1.034,2.004-2.015,2.524-3.23
	c0.062-0.139,0.111-0.278,0.155-0.419c0-0.049,0.027-0.094,0.038-0.139c0.012-0.045,0.056-0.193,0.078-0.287
	c0.022-0.096,0-0.113,0.027-0.168c0.028-0.053,0.028-0.175,0.039-0.266c0.011-0.089,0-0.116,0-0.176c0.006-0.086,0.006-0.174,0-0.26
	c0-0.059,0-0.117,0-0.176s0-0.18,0-0.27s0-0.112,0-0.167l-0.033-0.282v-0.158c0-0.107-0.033-0.216-0.056-0.328v-0.108l-0.1-0.45l0,0
	c-0.266-0.954-0.605-1.894-1.019-2.813c-0.221-0.564-0.502-1.113-0.841-1.637c0.205-0.032,0.409-0.072,0.614-0.117
	c-0.128-0.193-0.332-0.418-0.448-0.639c1.277-1.524,2.233-3.211,2.829-4.99c0.332-1.27,0.526-2.559,0.581-3.855
	c0.31-3.893,0.614-7.807,0.221-11.698v-0.148c0.145-0.837,0.155-1.686,0.034-2.524c-0.131-1.638-0.728-3.229-1.744-4.647
	c-1.068-1.377-2.846-2.587-4.816-2.749c-0.324,0.297-0.684,0.566-1.074,0.805c-0.59-0.423-1.022-0.972-1.251-1.584
	c4.728-0.606,8.377-3.702,8.918-7.567c0-0.144,0.034-0.288,0.045-0.45c0-0.058,0-0.117,0-0.175v-0.243v-0.41v-0.265
	c0-0.045,0-0.095,0-0.141c0-0.044,0-0.193,0-0.291v-0.1c0-0.108-0.028-0.212-0.05-0.319c0-0.022,0-0.045,0-0.067
	c0-0.112-0.05-0.225-0.077-0.337v-0.032l-0.101-0.36l0,0c-0.25-0.818-0.644-1.603-1.168-2.33c0.431-0.797,0.715-1.642,0.842-2.507
	c0-0.152,0.039-0.31,0.05-0.449v-0.297c0-0.05,0-0.099,0-0.149c0-0.13,0-0.255,0-0.387v-0.04c-0.086-2.161-1.15-4.22-2.989-5.781
	c0.219-0.295,0.404-0.604,0.554-0.927l0,0l0.116-0.283l0,0c0.033-0.091,0.061-0.185,0.089-0.275v-0.021
	c0-0.087,0.049-0.176,0.066-0.262c0.002-0.015,0.002-0.03,0-0.045c0-0.099,0.038-0.198,0.055-0.302
	c0.017-0.103,0.027-0.211,0.033-0.319c0.003-0.033,0.003-0.065,0-0.099c0-0.072,0-0.145,0-0.216c0.003-0.038,0.003-0.075,0-0.112
	c0-0.072,0-0.145,0-0.216c0-0.072,0-0.063,0-0.096c-0.275-2.936-3.428-5.134-7.041-4.91c-3.612,0.225-6.317,2.786-6.041,5.723
	c0.019,0.196,0.05,0.39,0.095,0.583c-3.276,1.301-5.511,3.869-5.93,6.812c-0.069,0.485-0.09,0.975-0.061,1.463
	c-0.957,1.218-1.527,2.608-1.661,4.049l0,0c0,0.055,0,0.108,0,0.167c0,0.18,0,0.359,0,0.544c-0.008,2.7,1.519,5.253,4.136,6.916
	c0.54,0.709,1.252,1.321,2.093,1.8c0.147,0.368,0.259,0.746,0.332,1.129c0.123,1.038-0.344,2.065-1.268,2.79
	c-0.238,0.166-0.51,0.301-0.753,0.45c-0.253-0.06-0.522-0.06-0.775,0c-2.851,0.729-5.586,2.173-6.903,4.387
	c-0.293,0.501-0.521,1.025-0.681,1.564l-0.161,0.189c-1.732,2.208-2.98,4.645-3.687,7.198c-0.36,1.31-0.587,2.674-1.34,3.865
	c-0.182,0.246-0.327,0.51-0.432,0.783c-0.066,0.421-0.089,0.846-0.066,1.269c-0.083,0.766-0.626,1.444-0.814,2.196
	c-0.104,0.449-0.083,0.9-0.183,1.35c-0.264,0.771-0.608,1.525-1.029,2.25c-0.592,1.322-0.587,2.775-1.024,4.139
	c-0.049,0.225-0.167,0.436-0.343,0.611c-0.345,0.222-0.734,0.393-1.151,0.505c-0.614,0.316-1.035,0.829-1.157,1.413
	c-0.112,0.579-0.126,1.168-0.039,1.75l0.216,2.285c-1.046,0.252-2.093,0.514-3.139,0.774l-5.159,1.282
	c-1.515,0.309-2.962,0.805-4.291,1.471c-1.185,0.666-2.118,1.586-2.696,2.659c-0.525,1.118-0.862,2.29-1.001,3.482
	c-0.548,3.352-1.489,6.653-2.813,9.858c-0.105,0.248-0.211,0.49-0.327,0.734l0,0c-0.11,0.242-0.227,0.48-0.349,0.719
	c0,0.05-0.05,0.1-0.077,0.148c-0.095,0.189-0.194,0.383-0.3,0.572c-0.104,0.188-0.271,0.48-0.409,0.719l12.079,3.271
	c0,0.117,0.028,0.243,0.057,0.383c0.415,2.41,0.21,4.862,0.597,7.274c0.051,0.403,0.165,0.799,0.338,1.179
	c-0.307,0.215-0.525,0.501-0.631,0.818c-0.14,0.513-0.16,1.043-0.061,1.563c0.133,1.231,0.271,2.469,0.409,3.701
	c0.065,0.449,0.065,0.902,0,1.351c-0.155,0.814-0.726,1.525-1.04,2.309c-0.316,0.782-0.306,1.772,0.492,2.249
	c0.563,0.309,1.281,0.361,1.904,0.141c0.609-0.23,1.146-0.568,1.572-0.99c2.436-2.191,3.521-5.16,5.414-7.689
	c0.484-0.586,0.917-1.199,1.296-1.836c0.255-0.49,0.421-1.013,0.631-1.516c0.289-0.679,0.639-1.339,1.046-1.977
	c0.222-0.363,1.107-1.241,0.903-1.65c-0.311-0.693-3.627-1.31-4.429-1.521c-0.512-0.189-1.093-0.213-1.623-0.063
	c-0.077,0.031-0.149,0.071-0.216,0.117c-0.094-0.99-0.193-1.979-0.288-2.974c0.493-0.03,0.98-0.085,1.468-0.147
	c0-0.559-0.033-1.125-0.05-1.688s-0.034-1.035-0.045-1.553c-0.033-1.255-0.066-2.516-0.11-3.752
	c-0.007-0.73-0.064-1.459-0.172-2.183c-0.188-1.106-0.604-2.183-0.73-3.294c0.196-0.131,0.431-0.219,0.681-0.256l0,0
	c0.391-0.05,0.786-0.061,1.18-0.032h0.305c1.718-0.021,3.402-0.397,4.894-1.093c1.517-0.648,2.929-1.454,4.429-2.11
	c0.188-0.085,0.376-0.161,0.554-0.243l0.205-0.086l0.354-0.139l0.299-0.117l0.066-0.027c0.881-0.342,1.772-0.674,2.625-1.043
	c0.056,0.074,0.116,0.146,0.183,0.215c0.42,0.471,1.149,0.686,1.844,0.545c-1.042,2.047-2.271,4.049-2.586,6.246
	c-0.448,3.193,1.107,6.32,2.663,9.272l4.927,9.448c0.554,1.039,1.268,2.213,2.607,2.46c0.857,0.095,1.729-0.05,2.475-0.404
	c2.248-0.868,4.279-2.124,6.345-3.289l0.077,0.05c1.871,1.196,3.034,2.87,4.323,4.463l3.455,4.611
	c-0.026,0.231,0.021,0.465,0.139,0.675c0.25,0.382,0.577,0.726,0.969,1.017c2.188,1.922,3.63,4.324,4.146,6.907
	c0.049,0.663,0.283,1.308,0.687,1.886c0.931,1.043,2.896,0.976,4.291,0.377c0.426-0.161,0.795-0.407,1.074-0.715
	c0.229-0.338,0.377-0.71,0.432-1.094c0.251-0.953,0.39-1.924,0.415-2.898C641.204,211.744,640.369,209.984,639.964,208.176z
	 M620.168,123.401c0.237-0.136,0.47-0.275,0.697-0.424c-0.467,1.144-1.221,2.194-2.215,3.087l0,0
	c-0.232,0.206-0.481,0.405-0.736,0.594c0-0.05,0-0.095,0-0.144c-0.033-0.45,0-0.95,0-1.427
	C618.801,124.657,619.567,124.083,620.168,123.401z M600.619,158.904c0-0.031,0.028-0.058,0.039-0.09
	c0.195,0.118,0.366,0.261,0.504,0.423c-0.276,0.489-0.249,1.056,0.072,1.526c0.294,0.395,0.813,0.764,0.697,1.219
	c-0.116,0.453-0.819,0.629-1.395,0.706c-0.753,0.099-1.5,0.216-2.254,0.337c0.003-0.01,0.003-0.021,0-0.031
	c0.018-0.507-0.067-1.012-0.249-1.498C599.324,161.046,600.116,159.976,600.619,158.904z"/>
<path fill="#3F3D56" d="M623.66,106.519c1.853-2.536,0.824-5.813-2.297-7.318c-3.121-1.505-7.152-0.668-9.005,1.868
	c-0.812,1.111-1.1,2.425-0.811,3.696c-3.835,1.492-6.198,4.705-6.001,8.157c-3.183,3.974-1.8,9.291,3.089,11.878
	c4.89,2.587,11.433,1.462,14.615-2.511c1.117-1.394,1.711-3.021,1.711-4.684c0-0.135,0-0.27,0-0.405
	c2.7-3.365,2.167-7.804-1.284-10.681L623.66,106.519z"/>
<g opacity="0.1">
	<path d="M611.46,103.429l0.088-0.036c0-0.095-0.033-0.189-0.05-0.279c0,0,0,0.036,0,0.059S611.471,103.324,611.46,103.429z"/>
	<path d="M626.584,112.148c-0.198,1.307-0.767,2.559-1.661,3.657c0,0.136,0,0.27,0,0.409c0.009,4.741-4.713,8.591-10.547,8.599
		c-5.515,0.006-10.108-3.438-10.545-7.905c0,0.229-0.033,0.45-0.033,0.697c0,4.741,4.729,8.585,10.563,8.585
		s10.563-3.844,10.563-8.585c0-0.135,0-0.27,0-0.405c1.279-1.599,1.863-3.499,1.661-5.399
		C626.611,111.923,626.601,112.036,626.584,112.148z"/>
	<path d="M624.524,103.087c-0.112,0.721-0.406,1.417-0.864,2.042c0.184,0.152,0.36,0.315,0.526,0.481
		c0.172-0.381,0.288-0.776,0.349-1.179C624.601,103.984,624.597,103.533,624.524,103.087z"/>
</g>
<path fill="#FBBEBE" d="M581.095,198.619c0.052,0.488,0.215,0.965,0.481,1.404c0.277,0.443,0.797,0.754,1.4,0.836
	c0.547,0.002,1.084-0.124,1.544-0.364c0.941-0.399,1.916-0.864,2.409-1.628c0.492-0.765,0.403-1.624,0.326-2.457l-0.631-6.545
	c-1.522-0.032-3.051-0.032-4.573,0.035c-1.522,0.068-1.766,0.355-1.556,1.548C580.911,193.828,580.707,196.239,581.095,198.619z"/>
<path fill="#FBBEBE" d="M625.704,203.042l3.643,4.771c0.154,0.276,0.437,0.492,0.786,0.602c0.26,0.029,0.525-0.008,0.758-0.107
	c1.17-0.498,2.198-1.191,3.018-2.033c0.652-0.498,1.15-1.115,1.45-1.8c0.236-0.776-0.039-1.597-0.726-2.169
	c-0.425-0.297-0.883-0.563-1.367-0.792c-2.856-1.565-4.151-4.55-6.976-6.16c-0.157-0.106-0.349-0.176-0.554-0.198
	c-0.209,0.009-0.412,0.063-0.586,0.158l-3.876,1.701c-1.66,0.742-1.14,0.828,0.128,1.629
	C623.268,199.82,624.436,201.472,625.704,203.042z"/>
<path fill="#3F3D56" d="M588.955,194.835c-0.514-0.185-1.095-0.207-1.627-0.062c-0.473,0.236-0.784,0.636-0.848,1.084
	c-0.1,0.449-0.088,0.899-0.237,1.318c-0.33,0.698-0.873,1.318-1.578,1.799c-0.263,0.254-0.605,0.447-0.991,0.559
	c-0.521,0.107-1.074-0.091-1.605,0c-0.63,0.129-1.119,0.533-1.268,1.049c-0.139,0.506-0.16,1.029-0.066,1.543l0.415,3.648
	c0.067,0.447,0.067,0.901,0,1.35c-0.154,0.801-0.725,1.507-1.046,2.25c-0.321,0.742-0.299,1.754,0.498,2.249
	c0.563,0.309,1.282,0.36,1.904,0.14c0.61-0.223,1.15-0.557,1.577-0.977c2.437-2.16,3.527-5.084,5.426-7.58
	c0.482-0.576,0.915-1.178,1.296-1.801c0.26-0.485,0.426-0.998,0.636-1.502c0.291-0.668,0.64-1.316,1.042-1.944
	c0.227-0.36,1.106-1.224,0.907-1.624C593.097,195.664,589.774,195.047,588.955,194.835z"/>
<path fill="#3F3D56" d="M601.771,159.503c-0.76,0.507-0.961,1.384-0.477,2.079c0.288,0.391,0.809,0.756,0.698,1.201
	c-0.111,0.445-0.825,0.625-1.401,0.697c-5.082,0.657-10.031,1.867-14.947,3.072l-5.17,1.266c-1.513,0.304-2.96,0.794-4.291,1.453
	c-1.185,0.652-2.122,1.562-2.707,2.623c-0.523,1.1-0.86,2.254-1.002,3.428c-0.774,4.293-1.766,8.631-4.125,12.522l12.513,3.343
	c1.214,0.363,2.472,0.62,3.753,0.77c1.222,0.08,2.452,0.031,3.659-0.145c-0.077-2.276-0.122-4.62-0.199-6.896
	c-0.01-0.719-0.068-1.438-0.177-2.15c-0.183-1.09-0.604-2.152-0.731-3.245c0.554-0.387,1.418-0.293,2.17-0.274
	c1.72-0.019,3.404-0.391,4.9-1.08c1.522-0.639,2.934-1.431,4.429-2.084c2.519-1.08,5.386-1.799,7.307-3.518
	c-0.979,3.032-3.293,5.678-3.742,8.797c-0.448,3.117,1.107,6.23,2.669,9.143l4.933,9.303c0.554,1.025,1.268,2.183,2.612,2.43
	c0.857,0.09,1.727-0.051,2.476-0.4c4.539-1.728,8.171-4.977,13.021-6.015c-0.36-1.952-2.259-3.563-3.322-5.331
	c-0.902-1.494-1.201-3.149-1.804-4.766c-0.604-1.615-1.661-3.198-3.466-3.954c-0.864-0.36-2.032-0.671-2.115-1.458
	c-0.002-0.254,0.064-0.504,0.193-0.733c0.65-1.329,1.658-2.522,2.951-3.492c0.168-0.103,0.301-0.239,0.388-0.396
	c0.045-0.147,0.055-0.299,0.027-0.449c-0.089-1.27,0.747-2.453,1.661-3.47c0.913-1.017,2.004-1.989,2.53-3.186
	c0.902-2.056,0-4.311-0.887-6.371c-0.288-0.852-0.792-1.646-1.478-2.331c-1.162-1.012-2.973-1.305-4.661-1.452
	C612.533,157.924,606.117,156.763,601.771,159.503z"/>
<g opacity="0.1">
	<path d="M622.498,168.506c-0.93,1.017-1.766,2.205-1.66,3.469c0.026,0.15,0.017,0.303-0.028,0.451
		c-0.085,0.156-0.218,0.293-0.388,0.395c-1.299,0.971-2.313,2.164-2.967,3.497c-0.13,0.229-0.195,0.479-0.194,0.733
		c0.12,0.482,0.539,0.879,1.107,1.048c0.565-0.748,1.255-1.429,2.049-2.024c0.167-0.104,0.301-0.24,0.388-0.396
		c0.045-0.146,0.055-0.3,0.027-0.449c-0.089-1.27,0.747-2.453,1.661-3.469c0.913-1.018,2.004-1.989,2.53-3.186
		c0.456-1.167,0.502-2.414,0.132-3.6c-0.038,0.121-0.083,0.233-0.132,0.35C624.502,166.518,623.428,167.484,622.498,168.506z"/>
	<path d="M601.201,160.119c0.374-0.064,0.677-0.289,0.792-0.584c0.011-0.057,0.011-0.115,0-0.172l-0.232,0.14
		C601.511,159.666,601.318,159.878,601.201,160.119z"/>
	<path d="M584.632,188.709c-1.281-0.148-2.539-0.408-3.753-0.77l-11.072-2.951c-0.419,0.975-0.909,1.928-1.468,2.856l12.523,3.343
		c1.214,0.363,2.472,0.62,3.753,0.77c1.222,0.08,2.452,0.031,3.659-0.145c-0.033-1.07-0.066-2.155-0.094-3.239
		C587.01,188.742,585.816,188.788,584.632,188.709z"/>
	<path d="M614.958,198.588c-0.748,0.352-1.618,0.492-2.475,0.4c-1.345-0.247-2.07-1.398-2.613-2.43l-4.932-9.304
		c-1.107-2.042-2.182-4.175-2.586-6.353c-0.033,0.152-0.061,0.303-0.083,0.449c-0.454,3.15,1.107,6.232,2.669,9.143l4.932,9.305
		c0.554,1.025,1.269,2.182,2.613,2.43c0.856,0.088,1.726-0.053,2.475-0.4c4.54-1.729,8.171-4.977,13.021-6.016
		c-0.254-1.021-0.759-1.99-1.484-2.848C622.382,194.282,619.021,197.04,614.958,198.588z"/>
	<path d="M606.012,169.316c-1.921,1.709-4.788,2.438-7.308,3.522c-1.517,0.647-2.929,1.444-4.429,2.079
		c-1.495,0.689-3.18,1.061-4.899,1.08c-0.753,0-1.594-0.113-2.17,0.273c0.122,1.012,0.481,1.994,0.687,2.996
		c0.492-0.045,0.99-0.045,1.483,0c1.72-0.018,3.404-0.389,4.899-1.08c1.522-0.639,2.934-1.43,4.429-2.082
		c1.661-0.711,3.466-1.273,5.061-2.061C604.652,172.515,605.404,170.934,606.012,169.316z"/>
</g>
<path fill="#FBBEBE" d="M610.413,127.298c0.118,1.027-0.351,2.042-1.273,2.753c-0.311,0.207-0.664,0.368-0.963,0.585
	c-1.003,0.837-0.979,2.176,0.05,2.99c0.103,0.082,0.214,0.155,0.332,0.223c0.996,0.494,2.265,0.359,3.416,0.197
	c1.532-0.175,3.035-0.493,4.479-0.949c1.452-0.466,2.688-1.288,3.537-2.354c-1.234-0.636-1.992-1.735-2.015-2.924
	c-0.072-1.166,0.321-2.488-0.593-3.393c-0.913-0.904-2.519-0.868-3.875-0.567c-0.67,0.148-1.317,0.355-1.987,0.504
	c-0.338,0.076-1.462,0.076-1.661,0.279C609.455,125.024,610.374,126.712,610.413,127.298z"/>
<path opacity="0.1" enable-background="new    " d="M610.413,127.298c0.118,1.027-0.351,2.042-1.273,2.753
	c-0.311,0.207-0.664,0.368-0.963,0.585c-1.003,0.837-0.979,2.176,0.05,2.99c0.103,0.082,0.214,0.155,0.332,0.223
	c0.996,0.494,2.265,0.359,3.416,0.197c1.532-0.175,3.035-0.493,4.479-0.949c1.452-0.466,2.688-1.288,3.537-2.354
	c-1.234-0.636-1.992-1.735-2.015-2.924c-0.072-1.166,0.321-2.488-0.593-3.393c-0.913-0.904-2.519-0.868-3.875-0.567
	c-0.67,0.148-1.317,0.355-1.987,0.504c-0.338,0.076-1.462,0.076-1.661,0.279C609.455,125.024,610.374,126.712,610.413,127.298z"/>
<ellipse fill="#FBBEBE" cx="614.255" cy="121.201" rx="7.424" ry="6.034"/>
<path fill="#FBBEBE" d="M590.827,167.484c-0.13,0.48-0.366,0.938-0.698,1.35c-0.863,1.251-1.176,2.703-0.886,4.117
	c0.32,1.425,1.49,2.627,3.123,3.208c0.682,0.272,1.49,0.231,2.125-0.107c-0.99-1.048-1.04-2.484-0.985-3.802
	c-0.017-0.248,0.057-0.494,0.211-0.707c0.172-0.205,0.516-0.258,0.769-0.119c0.004,0.002,0.008,0.005,0.012,0.007
	c-0.021,0.831,0.176,1.657,0.581,2.421c0.155,0.293,0.427,0.62,0.819,0.611c0.554,0,0.72-0.635,0.697-1.093
	c-0.088-1.872-0.199-3.82-1.312-5.463c-0.485-0.561-0.858-1.181-1.107-1.835c-0.005-0.234-0.104-0.46-0.282-0.645
	c-0.122-0.076-0.264-0.132-0.415-0.161c-0.643-0.144-2.154-0.603-2.68-0.116C590.273,165.636,590.921,166.869,590.827,167.484z"/>
<path fill="#E8E8EA" d="M601.838,135.432c-0.848-0.076-1.522,0.558-1.987,1.138c-1.736,2.179-2.986,4.589-3.692,7.118
	c-0.36,1.297-0.588,2.637-1.34,3.812c-0.183,0.243-0.329,0.503-0.438,0.774c-0.063,0.412-0.086,0.829-0.066,1.246
	c-0.083,0.756-0.626,1.426-0.813,2.164c-0.111,0.45-0.089,0.9-0.183,1.35c-0.265,0.76-0.611,1.498-1.036,2.209
	c-0.592,1.305-0.587,2.735-1.019,4.08c-0.056,0.223-0.173,0.43-0.343,0.608c-0.35,0.216-0.741,0.382-1.157,0.495
	c-0.613,0.307-1.035,0.813-1.157,1.391c-0.115,0.57-0.128,1.152-0.038,1.727l0.338,3.568c0.354-0.117,0.581-0.45,0.874-0.639
	c0.554-0.365,1.328-0.284,2.016-0.18l0.996,0.144c1.023,0.153,2.137,0.347,2.796,0.999c0.521-0.662,0.222-1.639,1.024-2.079
	c0.26-0.144,0.581-0.193,0.857-0.319c0.526-0.275,0.853-0.742,0.875-1.251c0.015-0.5-0.071-0.999-0.255-1.476
	c1.284-0.449,2.082-1.498,2.585-2.556c0.555-1.28,0.955-2.603,1.196-3.945c1.162-5.301,2.215-10.642,2.325-16.027
	c0.075-0.9-0.047-1.806-0.36-2.672C603.471,136.273,602.939,135.535,601.838,135.432z"/>
<path fill="#CACACC" d="M620.55,129.659c-1.224,1.045-2.789,1.783-4.512,2.128c-1.714,0.344-3.464,0.553-5.227,0.626
	c-0.542,0.076-1.099,0.038-1.616-0.112c-0.531-0.164-0.823-0.629-0.676-1.076c0.098-0.128,0.163-0.27,0.193-0.418
	c0-0.369-0.675-0.396-1.106-0.288c-2.857,0.715-5.597,2.137-6.915,4.319c-0.663,1.266-1.076,2.607-1.224,3.978
	c-0.625,3.599-1.245,7.229-0.409,10.798c0.443,1.891,1.296,3.734,1.351,5.66c0.027,1.08-0.193,2.151-0.183,3.23
	c-0.041,0.378,0.082,0.756,0.349,1.066c0.205,0.193,0.516,0.319,0.659,0.545c0.244,0.383-0.077,0.898,0.238,1.25
	c0.387,0.419,1.201,0.117,1.732-0.18c2.698-1.496,5.962-2.17,9.212-1.898c3.875,0.342,7.751,2.024,11.532,1.184
	c-0.194-0.231-0.362-0.475-0.504-0.729c-1.883-5.027-1.755-10.641,1.063-15.37c0.963-1.615,2.215-3.149,2.607-4.923
	c0.149-0.827,0.16-1.667,0.033-2.496c-0.13-1.617-0.728-3.187-1.744-4.58C624.303,131.014,622.525,129.816,620.55,129.659z"/>
<path fill="#FBBEBE" d="M602.596,169.037c-0.303,0.655-0.447,1.352-0.426,2.051c-0.031,0.672,0.01,1.343,0.122,2.008
	c0.063,0.566,0.312,1.111,0.72,1.574c0.431,0.464,1.16,0.674,1.854,0.535c0.538-0.186,0.944-0.557,1.107-1.012
	c0.159-0.451,0.276-0.911,0.35-1.377c0.326-1.35,1.212-2.654,1.224-4.049c0.016-0.165-0.017-0.33-0.095-0.482
	c-0.32-0.575-1.894-1.219-2.668-1.119C603.831,167.283,602.945,168.376,602.596,169.037z"/>
<path opacity="0.1" enable-background="new    " d="M624.043,134.752c-0.149,1.197,1.278,2.102,1.844,3.218
	c0.231,0.521,0.363,1.066,0.393,1.619c0.394,3.833,0.089,7.689-0.222,11.532c-0.048,1.277-0.233,2.549-0.554,3.802
	c-0.797,2.623-2.768,4.899-4.678,7.104c-0.289,0.36-0.627,0.694-1.007,0.994c-0.562,0.381-1.188,0.694-1.86,0.928l-6.649,2.591
	c-0.825,0.297-1.61,0.663-2.342,1.093c-0.846,0.543-1.512,1.248-1.938,2.053c-1.278-0.531-2.607-1.008-3.875-1.539
	c-0.299-0.122-0.631-0.283-0.681-0.554c-0.072-0.364,0.393-0.621,0.714-0.899c0.598-0.482,0.786-1.197,1.107-1.832
	c1.063-2.064,3.73-3.387,4.694-5.488c0.365-0.807,0.481-1.715,1.135-2.395c0.376-0.337,0.798-0.639,1.257-0.899
	c1.012-0.701,1.938-1.478,2.768-2.321c0.378-0.317,0.687-0.684,0.914-1.084c0.208-0.619,0.281-1.261,0.216-1.9
	c0.05-2.096,1.213-4.049,1.927-6.06c0.67-1.898,0.952-3.888,1.832-5.724C619.918,137.155,621.662,135.243,624.043,134.752z"/>
<path fill="#B3B3B7" d="M624.873,134.752c-0.149,1.197,1.278,2.102,1.844,3.218c0.231,0.521,0.362,1.066,0.388,1.619
	c0.398,3.833,0.089,7.689-0.217,11.532c-0.059,1.279-0.255,2.551-0.586,3.802c-0.798,2.623-2.769,4.899-4.679,7.104
	c-0.66,0.883-1.668,1.561-2.861,1.922l-6.588,2.591c-0.826,0.296-1.611,0.663-2.342,1.093c-0.848,0.542-1.514,1.248-1.938,2.053
	c-1.279-0.531-2.607-1.008-3.875-1.539c-0.3-0.122-0.632-0.283-0.688-0.554c-0.066-0.364,0.398-0.621,0.72-0.899
	c0.599-0.482,0.781-1.197,1.107-1.832c1.063-2.064,3.731-3.387,4.688-5.488c0.371-0.807,0.488-1.715,1.142-2.395
	c0.376-0.337,0.798-0.639,1.257-0.899c1.01-0.702,1.937-1.479,2.768-2.321c0.377-0.316,0.684-0.684,0.908-1.084
	c0.211-0.617,0.284-1.261,0.216-1.9c0.049-2.096,1.218-4.049,1.932-6.06c0.67-1.898,0.952-3.888,1.832-5.724
	C620.782,137.155,622.521,135.243,624.873,134.752z"/>
<path fill="#3F3D56" d="M617.953,111.878c-2.287-0.227-4.604,0.162-6.594,1.107c0.294,0,0.588,0.026,0.887,0.053
	c5.79,0.573,9.913,4.854,9.208,9.56c-0.398,2.665-2.309,5.024-5.162,6.378c5.831,0.151,10.709-3.567,10.896-8.306
	C627.361,116.241,623.361,112.433,617.953,111.878z"/>
<path fill="#3F3D56" d="M621.187,116.652c0.516,0.953,0.546,2.034,0.083,3.005c-0.049-0.126-0.107-0.249-0.178-0.369
	c-1.301-2.357-5.325-3.334-8.979-2.182c-1.967,0.571-3.543,1.793-4.341,3.36c-0.931-2.28,0.963-4.903,4.429-6.002
	C615.855,113.327,619.88,114.29,621.187,116.652z"/>
<g opacity="0.1">
	<path d="M621.203,119.469c-0.344-3.386-3.111-6.29-7.059-7.406c-0.983,0.197-1.927,0.509-2.802,0.923
		c0.294,0,0.587,0.026,0.887,0.053C616.568,113.468,620.136,116.022,621.203,119.469z"/>
	<path d="M622.936,113.205c-0.347-3.385-3.112-6.287-7.059-7.406c-0.983,0.198-1.926,0.509-2.801,0.923
		c0.291,0,0.585,0.018,0.88,0.054C618.298,107.202,621.868,109.759,622.936,113.205z"/>
	<path d="M622.963,103.847c-0.211-2.042-1.881-3.793-4.263-4.468c-0.593,0.12-1.16,0.308-1.688,0.558c0.178,0,0.354,0,0.554,0.032
		C620.176,100.233,622.32,101.773,622.963,103.847z"/>
	<path d="M626.91,118.308c0.421,4.254-3.063,8.114-8.182,9.066c-0.712,0.629-1.535,1.169-2.441,1.602
		c5.826,0.173,10.723-3.526,10.936-8.261C627.259,119.904,627.154,119.094,626.91,118.308z"/>
</g>
</svg>
