<?xml version="1.0" encoding="iso-8859-1"?>
<!-- Generator: Adobe Illustrator 22.1.0, SVG Export Plug-In . SVG Version: 6.00 Build 0)  -->
<svg xmlns="http://www.w3.org/2000/svg" xmlns:xlink="http://www.w3.org/1999/xlink" version="1.1" id="Layer_1_1_" x="0px" y="0px" viewBox="0 0 64 64" style="enable-background:new 0 0 64 64;" xml:space="preserve" width="512" height="512">
<g>
	<rect x="13" y="38" width="2" height="2"/>
	<rect x="9" y="38" width="2" height="2"/>
	<rect x="5" y="38" width="2" height="2"/>
	<path d="M60.748,39.718c-1.124-0.899-2.397-1.587-3.748-2.048V36c0-1.654-1.346-3-3-3c0-1.103,0.897-2,2-2h3c2.206,0,4-1.794,4-4   s-1.794-4-4-4H49c-1.103,0-2-0.897-2-2V11c0-1.103,0.897-2,2-2h7c2.206,0,4-1.794,4-4s-1.794-4-4-4H33c-2.206,0-4,1.794-4,4v0.101   C26.721,5.566,25,7.586,25,10v4H6c-2.757,0-5,2.243-5,5v20c0,2.757,2.243,5,5,5h10v4h-4v2h20v-2h-4v-4h10c2.757,0,5-2.243,5-5V19   c0-2.757-2.243-5-5-5h-3v-4c0-2.414-1.721-4.434-4-4.899V5c0-1.103,0.897-2,2-2h23c1.103,0,2,0.897,2,2s-0.897,2-2,2h-7   c-2.206,0-4,1.794-4,4v10c0,2.206,1.794,4,4,4h10c1.103,0,2,0.897,2,2s-0.897,2-2,2h-3c-2.206,0-4,1.794-4,4c-1.654,0-3,1.346-3,3   v1.67c-1.351,0.461-2.624,1.149-3.748,2.048v0C43.821,40.863,43,42.57,43,44.403v5.11c0,6.105,3.892,11.505,9.684,13.436L53,63.054   l0.316-0.105C59.108,61.018,63,55.619,63,49.513v-5.11C63,42.571,62.179,40.863,60.748,39.718z M32.132,27L30,30.197L27.868,27   H32.132z M33,25h-2V13h2V25z M29,25h-2V13h2V25z M38,42H20v2h6v4h-8v-6H6c-1.654,0-3-1.346-3-3v-3h11.697l3,2H41v1   C41,40.654,39.654,42,38,42z M38,16c1.654,0,3,1.346,3,3v17H18.303l-3-2H3V19c0-1.654,1.346-3,3-3h19v10.303l5,7.5l5-7.5V16H38z    M33,10v1h-6v-1c0-1.654,1.346-3,3-3S33,8.346,33,10z M61,44.403V45h-5c0-1.103-0.897-2-2-2v-3.947   c2,0.195,3.923,0.966,5.499,2.227C60.453,42.043,61,43.182,61,44.403z M60.721,52.081C60.283,52.031,59.827,52,59.332,52   c-2.387,0-3.644,0.58-4.753,1.092C53.522,53.579,52.61,54,50.663,54c-1.946,0-2.857-0.421-3.912-0.908   c-0.425-0.196-0.861-0.397-1.369-0.574C45.135,51.552,45,50.545,45,49.513V47h5v2c0,1.103,0.897,2,2,2h2c1.103,0,2-0.897,2-2v-2h5   v2.513C61,50.39,60.9,51.248,60.721,52.081z M54,45l0.001,4H52v-4H54z M51,36c0-0.551,0.449-1,1-1h2c0.551,0,1,0.449,1,1v1.167   C54.341,37.059,53.672,37,53,37s-1.341,0.059-2,0.167V36z M46.501,41.279C48.077,40.019,50,39.248,52,39.053V43   c-1.103,0-2,0.897-2,2h-5v-0.597C45,43.182,45.547,42.043,46.501,41.279z M53,60.941c-2.927-1.065-5.255-3.177-6.629-5.825   C47.38,55.565,48.598,56,50.663,56c2.387,0,3.644-0.58,4.753-1.092C56.472,54.421,57.384,54,59.332,54   c0.283,0,0.541,0.017,0.798,0.035C58.868,57.187,56.317,59.734,53,60.941z"/>
	<path d="M19.792,22.601c0.138-0.919-0.157-1.866-0.842-2.551c-0.685-0.685-1.628-0.98-2.55-0.842C15.847,18.46,14.969,18,14,18   s-1.847,0.46-2.399,1.208c-0.918-0.138-1.865,0.157-2.55,0.842s-0.98,1.631-0.842,2.551C7.46,23.153,7,24.031,7,25   c0,0.969,0.46,1.847,1.208,2.399c-0.138,0.919,0.157,1.865,0.842,2.55c0.686,0.686,1.634,0.98,2.55,0.842   C12.153,31.54,13.031,32,14,32s1.847-0.46,2.399-1.208c0.916,0.137,1.865-0.157,2.55-0.842c0.685-0.685,0.98-1.631,0.842-2.55   C20.54,26.847,21,25.969,21,25C21,24.031,20.54,23.153,19.792,22.601z M18.294,25.946l-1.148,0.356l0.559,1.064   c0.206,0.392,0.138,0.861-0.169,1.169c-0.308,0.308-0.776,0.375-1.168,0.169l-1.064-0.561l-0.356,1.149   C14.815,29.716,14.435,30,14,30s-0.815-0.284-0.946-0.707l-0.356-1.149l-1.064,0.561c-0.391,0.205-0.861,0.138-1.168-0.169   c-0.307-0.308-0.375-0.777-0.169-1.169l0.559-1.064l-1.148-0.356C9.284,25.815,9,25.435,9,25c0-0.435,0.284-0.815,0.707-0.946   l1.149-0.357l-0.561-1.064c-0.206-0.392-0.138-0.861,0.169-1.168c0.307-0.307,0.777-0.376,1.169-0.169l1.064,0.559l0.356-1.148   C13.185,20.284,13.565,20,14,20s0.815,0.284,0.946,0.706l0.356,1.148l1.064-0.559c0.391-0.208,0.861-0.138,1.169,0.169   c0.307,0.308,0.375,0.777,0.169,1.168l-0.561,1.064l1.149,0.357C18.716,24.185,19,24.565,19,25   C19,25.435,18.716,25.815,18.294,25.946z"/>
	<path d="M14,22c-1.654,0-3,1.346-3,3s1.346,3,3,3s3-1.346,3-3S15.654,22,14,22z M14,26c-0.551,0-1-0.449-1-1s0.449-1,1-1   s1,0.449,1,1S14.551,26,14,26z"/>
</g>
</svg>
